<mxfile host="app.diagrams.net" modified="2022-03-21T23:42:08.470Z" agent="5.0 (X11)" etag="wWJ54E0ubYGO_BVDqX2v" version="17.1.3" type="github" pages="6">
  <diagram id="C5RBs43oDa-KdzZeNtuy" name="Everything">
    <mxGraphModel dx="1102" dy="1763" grid="1" gridSize="10" guides="1" tooltips="1" connect="1" arrows="1" fold="1" page="1" pageScale="1" pageWidth="827" pageHeight="1169" math="0" shadow="0">
      <root>
        <mxCell id="WIyWlLk6GJQsqaUBKTNV-0" />
        <mxCell id="WIyWlLk6GJQsqaUBKTNV-1" parent="WIyWlLk6GJQsqaUBKTNV-0" />
        <mxCell id="BBG6zxxmUqPpm9BTkGRF-6" value="" style="edgeStyle=orthogonalEdgeStyle;rounded=0;orthogonalLoop=1;jettySize=auto;html=1;entryX=0.5;entryY=0;entryDx=0;entryDy=0;exitX=0.5;exitY=1;exitDx=0;exitDy=0;" parent="WIyWlLk6GJQsqaUBKTNV-1" source="BBG6zxxmUqPpm9BTkGRF-10" target="BBG6zxxmUqPpm9BTkGRF-0" edge="1">
          <mxGeometry relative="1" as="geometry">
            <mxPoint x="333" y="60" as="sourcePoint" />
            <mxPoint x="283" y="90" as="targetPoint" />
          </mxGeometry>
        </mxCell>
        <mxCell id="BBG6zxxmUqPpm9BTkGRF-17" style="edgeStyle=orthogonalEdgeStyle;rounded=0;orthogonalLoop=1;jettySize=auto;html=1;exitX=0.5;exitY=1;exitDx=0;exitDy=0;entryX=0.5;entryY=0;entryDx=0;entryDy=0;endArrow=block;endFill=0;" parent="WIyWlLk6GJQsqaUBKTNV-1" source="WIyWlLk6GJQsqaUBKTNV-3" target="8oIcxaGwzhKGt03ImPEF-5" edge="1">
          <mxGeometry relative="1" as="geometry" />
        </mxCell>
        <mxCell id="WIyWlLk6GJQsqaUBKTNV-3" value="&lt;div&gt;Drawing Board&lt;/div&gt;" style="rounded=1;whiteSpace=wrap;html=1;fontSize=12;glass=0;strokeWidth=1;shadow=0;fillColor=#dae8fc;strokeColor=#000000;" parent="WIyWlLk6GJQsqaUBKTNV-1" vertex="1">
          <mxGeometry x="369" y="207" width="120" height="40" as="geometry" />
        </mxCell>
        <mxCell id="BBG6zxxmUqPpm9BTkGRF-24" style="edgeStyle=orthogonalEdgeStyle;rounded=0;orthogonalLoop=1;jettySize=auto;html=1;exitX=0.5;exitY=1;exitDx=0;exitDy=0;entryX=0.5;entryY=0;entryDx=0;entryDy=0;endArrow=block;endFill=0;" parent="WIyWlLk6GJQsqaUBKTNV-1" source="BBG6zxxmUqPpm9BTkGRF-0" target="WIyWlLk6GJQsqaUBKTNV-3" edge="1">
          <mxGeometry relative="1" as="geometry" />
        </mxCell>
        <mxCell id="AqJpcWqbMygSoSP_ZsE5-0" style="edgeStyle=orthogonalEdgeStyle;rounded=0;orthogonalLoop=1;jettySize=auto;html=1;exitX=1;exitY=0.5;exitDx=0;exitDy=0;entryX=0;entryY=0.5;entryDx=0;entryDy=0;" edge="1" parent="WIyWlLk6GJQsqaUBKTNV-1" source="BBG6zxxmUqPpm9BTkGRF-0" target="BBG6zxxmUqPpm9BTkGRF-9">
          <mxGeometry relative="1" as="geometry">
            <mxPoint x="522" y="30" as="targetPoint" />
          </mxGeometry>
        </mxCell>
        <mxCell id="BBG6zxxmUqPpm9BTkGRF-0" value="&lt;div&gt;Switch gallery/&lt;/div&gt;&lt;div&gt;drawing board&lt;/div&gt;" style="rhombus;whiteSpace=wrap;html=1;shadow=0;fontFamily=Helvetica;fontSize=12;align=center;strokeWidth=1;spacing=6;spacingTop=-4;" parent="WIyWlLk6GJQsqaUBKTNV-1" vertex="1">
          <mxGeometry x="379" y="84" width="100" height="80" as="geometry" />
        </mxCell>
        <mxCell id="BBG6zxxmUqPpm9BTkGRF-44" style="edgeStyle=orthogonalEdgeStyle;rounded=0;orthogonalLoop=1;jettySize=auto;html=1;exitX=0.5;exitY=1;exitDx=0;exitDy=0;entryX=0.5;entryY=0;entryDx=0;entryDy=0;endArrow=block;endFill=0;" parent="WIyWlLk6GJQsqaUBKTNV-1" source="BBG6zxxmUqPpm9BTkGRF-9" target="6sg3udlWDmre4yCdMhId-0" edge="1">
          <mxGeometry relative="1" as="geometry" />
        </mxCell>
        <mxCell id="BBG6zxxmUqPpm9BTkGRF-52" style="edgeStyle=orthogonalEdgeStyle;rounded=0;orthogonalLoop=1;jettySize=auto;html=1;exitX=1;exitY=0.5;exitDx=0;exitDy=0;entryX=0;entryY=0.5;entryDx=0;entryDy=0;endArrow=block;endFill=0;" parent="WIyWlLk6GJQsqaUBKTNV-1" source="BBG6zxxmUqPpm9BTkGRF-9" target="AqJpcWqbMygSoSP_ZsE5-11" edge="1">
          <mxGeometry relative="1" as="geometry" />
        </mxCell>
        <mxCell id="BBG6zxxmUqPpm9BTkGRF-9" value="*Public*&lt;br&gt;&lt;div&gt;Gallery page&lt;/div&gt;" style="rounded=1;whiteSpace=wrap;html=1;fontSize=12;glass=0;strokeWidth=1;shadow=0;fillColor=#DAE8FC;" parent="WIyWlLk6GJQsqaUBKTNV-1" vertex="1">
          <mxGeometry x="522" y="104" width="120" height="40" as="geometry" />
        </mxCell>
        <mxCell id="BBG6zxxmUqPpm9BTkGRF-28" style="edgeStyle=orthogonalEdgeStyle;rounded=0;orthogonalLoop=1;jettySize=auto;html=1;exitX=0.75;exitY=1;exitDx=0;exitDy=0;entryX=0.25;entryY=0;entryDx=0;entryDy=0;endArrow=block;endFill=1;" parent="WIyWlLk6GJQsqaUBKTNV-1" source="8oIcxaGwzhKGt03ImPEF-1" target="BBG6zxxmUqPpm9BTkGRF-12" edge="1">
          <mxGeometry relative="1" as="geometry" />
        </mxCell>
        <mxCell id="8oIcxaGwzhKGt03ImPEF-13" style="edgeStyle=orthogonalEdgeStyle;rounded=0;orthogonalLoop=1;jettySize=auto;html=1;exitX=0.5;exitY=0;exitDx=0;exitDy=0;entryX=0.5;entryY=1;entryDx=0;entryDy=0;" edge="1" parent="WIyWlLk6GJQsqaUBKTNV-1" source="BBG6zxxmUqPpm9BTkGRF-10" target="8oIcxaGwzhKGt03ImPEF-10">
          <mxGeometry relative="1" as="geometry" />
        </mxCell>
        <mxCell id="BBG6zxxmUqPpm9BTkGRF-10" value="&lt;div&gt;Navbar&lt;/div&gt;" style="rounded=1;whiteSpace=wrap;html=1;fontSize=12;glass=0;strokeWidth=1;shadow=0;fillColor=#dae8fc;strokeColor=#000000;" parent="WIyWlLk6GJQsqaUBKTNV-1" vertex="1">
          <mxGeometry x="369" y="28" width="120" height="40" as="geometry" />
        </mxCell>
        <mxCell id="BBG6zxxmUqPpm9BTkGRF-58" style="edgeStyle=orthogonalEdgeStyle;rounded=0;orthogonalLoop=1;jettySize=auto;html=1;exitX=1;exitY=0.5;exitDx=0;exitDy=0;entryX=0.5;entryY=1;entryDx=0;entryDy=0;endArrow=block;endFill=1;" parent="WIyWlLk6GJQsqaUBKTNV-1" source="BBG6zxxmUqPpm9BTkGRF-11" target="AqJpcWqbMygSoSP_ZsE5-11" edge="1">
          <mxGeometry relative="1" as="geometry" />
        </mxCell>
        <mxCell id="BBG6zxxmUqPpm9BTkGRF-11" value="&lt;div&gt;*User*&lt;/div&gt;&lt;div&gt;Gallery page&lt;/div&gt;" style="rounded=1;whiteSpace=wrap;html=1;fontSize=12;glass=0;strokeWidth=1;shadow=0;fillColor=#dae8fc;strokeColor=#000000;" parent="WIyWlLk6GJQsqaUBKTNV-1" vertex="1">
          <mxGeometry x="522" y="391" width="120" height="40" as="geometry" />
        </mxCell>
        <mxCell id="BBG6zxxmUqPpm9BTkGRF-55" style="edgeStyle=orthogonalEdgeStyle;rounded=0;orthogonalLoop=1;jettySize=auto;html=1;exitX=0.5;exitY=1;exitDx=0;exitDy=0;entryX=0.617;entryY=-0.033;entryDx=0;entryDy=0;endArrow=block;endFill=0;entryPerimeter=0;" parent="WIyWlLk6GJQsqaUBKTNV-1" source="BBG6zxxmUqPpm9BTkGRF-12" target="AqJpcWqbMygSoSP_ZsE5-13" edge="1">
          <mxGeometry relative="1" as="geometry" />
        </mxCell>
        <mxCell id="BBG6zxxmUqPpm9BTkGRF-60" style="edgeStyle=orthogonalEdgeStyle;rounded=0;orthogonalLoop=1;jettySize=auto;html=1;exitX=1;exitY=0.5;exitDx=0;exitDy=0;entryX=1;entryY=0.5;entryDx=0;entryDy=0;endArrow=block;endFill=1;" parent="WIyWlLk6GJQsqaUBKTNV-1" source="BBG6zxxmUqPpm9BTkGRF-12" target="AqJpcWqbMygSoSP_ZsE5-11" edge="1">
          <mxGeometry relative="1" as="geometry" />
        </mxCell>
        <mxCell id="BBG6zxxmUqPpm9BTkGRF-12" value="&lt;div&gt;*Own* &lt;br&gt;&lt;/div&gt;&lt;div&gt;Gallery page&lt;/div&gt;" style="rounded=1;whiteSpace=wrap;html=1;fontSize=12;glass=0;strokeWidth=1;shadow=0;fillColor=#dae8fc;strokeColor=#FF0000;" parent="WIyWlLk6GJQsqaUBKTNV-1" vertex="1">
          <mxGeometry x="662" y="189" width="120" height="40" as="geometry" />
        </mxCell>
        <mxCell id="BBG6zxxmUqPpm9BTkGRF-18" style="edgeStyle=orthogonalEdgeStyle;rounded=0;orthogonalLoop=1;jettySize=auto;html=1;exitX=0.5;exitY=1;exitDx=0;exitDy=0;entryX=0.5;entryY=0;entryDx=0;entryDy=0;endArrow=block;endFill=0;" parent="WIyWlLk6GJQsqaUBKTNV-1" source="8oIcxaGwzhKGt03ImPEF-5" target="8oIcxaGwzhKGt03ImPEF-4" edge="1">
          <mxGeometry relative="1" as="geometry" />
        </mxCell>
        <mxCell id="BBG6zxxmUqPpm9BTkGRF-39" style="edgeStyle=orthogonalEdgeStyle;rounded=0;orthogonalLoop=1;jettySize=auto;html=1;exitX=0;exitY=0.5;exitDx=0;exitDy=0;entryX=0.75;entryY=0;entryDx=0;entryDy=0;endArrow=block;endFill=1;" parent="WIyWlLk6GJQsqaUBKTNV-1" source="8oIcxaGwzhKGt03ImPEF-5" target="8oIcxaGwzhKGt03ImPEF-0" edge="1">
          <mxGeometry relative="1" as="geometry">
            <mxPoint x="338" y="407" as="targetPoint" />
          </mxGeometry>
        </mxCell>
        <mxCell id="BBG6zxxmUqPpm9BTkGRF-32" style="edgeStyle=orthogonalEdgeStyle;rounded=0;orthogonalLoop=1;jettySize=auto;html=1;exitX=1;exitY=0.25;exitDx=0;exitDy=0;entryX=0.5;entryY=1;entryDx=0;entryDy=0;endArrow=block;endFill=1;" parent="WIyWlLk6GJQsqaUBKTNV-1" source="8oIcxaGwzhKGt03ImPEF-1" target="8oIcxaGwzhKGt03ImPEF-2" edge="1">
          <mxGeometry relative="1" as="geometry">
            <mxPoint x="288" y="276" as="targetPoint" />
          </mxGeometry>
        </mxCell>
        <mxCell id="BBG6zxxmUqPpm9BTkGRF-38" style="edgeStyle=orthogonalEdgeStyle;rounded=0;orthogonalLoop=1;jettySize=auto;html=1;entryX=0.5;entryY=1;entryDx=0;entryDy=0;endArrow=block;endFill=1;exitX=0;exitY=0;exitDx=0;exitDy=0;" parent="WIyWlLk6GJQsqaUBKTNV-1" source="8oIcxaGwzhKGt03ImPEF-1" target="8oIcxaGwzhKGt03ImPEF-3" edge="1">
          <mxGeometry relative="1" as="geometry">
            <mxPoint x="160" y="190" as="sourcePoint" />
            <mxPoint x="172" y="278" as="targetPoint" />
          </mxGeometry>
        </mxCell>
        <mxCell id="BBG6zxxmUqPpm9BTkGRF-45" style="edgeStyle=orthogonalEdgeStyle;rounded=0;orthogonalLoop=1;jettySize=auto;html=1;exitX=0.5;exitY=1;exitDx=0;exitDy=0;entryX=0.5;entryY=0;entryDx=0;entryDy=0;endArrow=block;endFill=0;" parent="WIyWlLk6GJQsqaUBKTNV-1" source="6sg3udlWDmre4yCdMhId-0" target="BBG6zxxmUqPpm9BTkGRF-11" edge="1">
          <mxGeometry relative="1" as="geometry" />
        </mxCell>
        <mxCell id="BBG6zxxmUqPpm9BTkGRF-56" style="edgeStyle=orthogonalEdgeStyle;rounded=0;orthogonalLoop=1;jettySize=auto;html=1;exitX=1;exitY=0.5;exitDx=0;exitDy=0;entryX=0.25;entryY=1;entryDx=0;entryDy=0;endArrow=block;endFill=1;" parent="WIyWlLk6GJQsqaUBKTNV-1" source="6sg3udlWDmre4yCdMhId-0" target="BBG6zxxmUqPpm9BTkGRF-12" edge="1">
          <mxGeometry relative="1" as="geometry" />
        </mxCell>
        <mxCell id="BBG6zxxmUqPpm9BTkGRF-54" style="edgeStyle=orthogonalEdgeStyle;rounded=0;orthogonalLoop=1;jettySize=auto;html=1;exitX=0.5;exitY=0;exitDx=0;exitDy=0;entryX=0.5;entryY=1;entryDx=0;entryDy=0;endArrow=block;endFill=0;" parent="WIyWlLk6GJQsqaUBKTNV-1" source="AqJpcWqbMygSoSP_ZsE5-11" target="BBG6zxxmUqPpm9BTkGRF-53" edge="1">
          <mxGeometry relative="1" as="geometry" />
        </mxCell>
        <mxCell id="BBG6zxxmUqPpm9BTkGRF-53" value="&lt;div&gt;Gallery page&lt;/div&gt;&amp;nbsp;w full size image" style="rounded=1;whiteSpace=wrap;html=1;fontSize=12;glass=0;strokeWidth=1;shadow=0;fillColor=#dae8fc;strokeColor=#000000;" parent="WIyWlLk6GJQsqaUBKTNV-1" vertex="1">
          <mxGeometry x="736" y="10" width="120" height="40" as="geometry" />
        </mxCell>
        <mxCell id="AqJpcWqbMygSoSP_ZsE5-7" value="input/output" style="shape=parallelogram;perimeter=parallelogramPerimeter;whiteSpace=wrap;html=1;fixedSize=1;" vertex="1" parent="WIyWlLk6GJQsqaUBKTNV-1">
          <mxGeometry x="920" y="44" width="120" height="60" as="geometry" />
        </mxCell>
        <mxCell id="AqJpcWqbMygSoSP_ZsE5-9" value="React Component" style="rounded=1;whiteSpace=wrap;html=1;fillColor=#dae8fc;strokeColor=#000000;" vertex="1" parent="WIyWlLk6GJQsqaUBKTNV-1">
          <mxGeometry x="920" y="-30" width="120" height="60" as="geometry" />
        </mxCell>
        <mxCell id="AqJpcWqbMygSoSP_ZsE5-10" value="Process/operation" style="rounded=0;whiteSpace=wrap;html=1;" vertex="1" parent="WIyWlLk6GJQsqaUBKTNV-1">
          <mxGeometry x="920" y="120" width="120" height="60" as="geometry" />
        </mxCell>
        <mxCell id="AqJpcWqbMygSoSP_ZsE5-11" value="&lt;div&gt;Click on a picture&lt;/div&gt;" style="shape=parallelogram;perimeter=parallelogramPerimeter;whiteSpace=wrap;html=1;fixedSize=1;" vertex="1" parent="WIyWlLk6GJQsqaUBKTNV-1">
          <mxGeometry x="736" y="94" width="120" height="60" as="geometry" />
        </mxCell>
        <mxCell id="AqJpcWqbMygSoSP_ZsE5-13" value="Set image privacy" style="shape=parallelogram;perimeter=parallelogramPerimeter;whiteSpace=wrap;html=1;fixedSize=1;strokeColor=#FF0000;" vertex="1" parent="WIyWlLk6GJQsqaUBKTNV-1">
          <mxGeometry x="648" y="320" width="120" height="60" as="geometry" />
        </mxCell>
        <mxCell id="6sg3udlWDmre4yCdMhId-0" value="Click on user" style="shape=parallelogram;perimeter=parallelogramPerimeter;whiteSpace=wrap;html=1;fixedSize=1;" vertex="1" parent="WIyWlLk6GJQsqaUBKTNV-1">
          <mxGeometry x="522" y="267" width="120" height="60" as="geometry" />
        </mxCell>
        <mxCell id="8oIcxaGwzhKGt03ImPEF-0" value="Save to DB" style="shape=parallelogram;perimeter=parallelogramPerimeter;whiteSpace=wrap;html=1;fixedSize=1;strokeColor=#FF0000;" vertex="1" parent="WIyWlLk6GJQsqaUBKTNV-1">
          <mxGeometry x="222" y="381" width="120" height="60" as="geometry" />
        </mxCell>
        <mxCell id="8oIcxaGwzhKGt03ImPEF-1" value="&lt;div&gt;User name&lt;/div&gt;&lt;div&gt;mpodal menu&lt;br&gt;&lt;/div&gt;" style="shape=parallelogram;perimeter=parallelogramPerimeter;whiteSpace=wrap;html=1;fixedSize=1;strokeColor=#FF0000;" vertex="1" parent="WIyWlLk6GJQsqaUBKTNV-1">
          <mxGeometry x="602" y="-60" width="120" height="60" as="geometry" />
        </mxCell>
        <mxCell id="8oIcxaGwzhKGt03ImPEF-2" value="Log out" style="shape=parallelogram;perimeter=parallelogramPerimeter;whiteSpace=wrap;html=1;fixedSize=1;strokeColor=#FF0000;" vertex="1" parent="WIyWlLk6GJQsqaUBKTNV-1">
          <mxGeometry x="750" y="-131" width="120" height="60" as="geometry" />
        </mxCell>
        <mxCell id="8oIcxaGwzhKGt03ImPEF-3" value="Delete account" style="shape=parallelogram;perimeter=parallelogramPerimeter;whiteSpace=wrap;html=1;fixedSize=1;strokeColor=#FF0000;" vertex="1" parent="WIyWlLk6GJQsqaUBKTNV-1">
          <mxGeometry x="479" y="-131" width="120" height="60" as="geometry" />
        </mxCell>
        <mxCell id="8oIcxaGwzhKGt03ImPEF-4" value="Download" style="shape=parallelogram;perimeter=parallelogramPerimeter;whiteSpace=wrap;html=1;fixedSize=1;" vertex="1" parent="WIyWlLk6GJQsqaUBKTNV-1">
          <mxGeometry x="369" y="381" width="120" height="60" as="geometry" />
        </mxCell>
        <mxCell id="8oIcxaGwzhKGt03ImPEF-5" value="Draw" style="shape=parallelogram;perimeter=parallelogramPerimeter;whiteSpace=wrap;html=1;fixedSize=1;" vertex="1" parent="WIyWlLk6GJQsqaUBKTNV-1">
          <mxGeometry x="369" y="271" width="120" height="60" as="geometry" />
        </mxCell>
        <mxCell id="8oIcxaGwzhKGt03ImPEF-8" value="Sign up" style="shape=parallelogram;perimeter=parallelogramPerimeter;whiteSpace=wrap;html=1;fixedSize=1;strokeColor=#00FF00;" vertex="1" parent="WIyWlLk6GJQsqaUBKTNV-1">
          <mxGeometry x="170" y="-131" width="120" height="60" as="geometry" />
        </mxCell>
        <mxCell id="8oIcxaGwzhKGt03ImPEF-9" value="&lt;div&gt;Log in&lt;/div&gt;" style="shape=parallelogram;perimeter=parallelogramPerimeter;whiteSpace=wrap;html=1;fixedSize=1;strokeColor=#00FF00;" vertex="1" parent="WIyWlLk6GJQsqaUBKTNV-1">
          <mxGeometry x="294" y="-131" width="120" height="60" as="geometry" />
        </mxCell>
        <mxCell id="8oIcxaGwzhKGt03ImPEF-14" style="edgeStyle=orthogonalEdgeStyle;rounded=0;orthogonalLoop=1;jettySize=auto;html=1;exitX=0;exitY=0.5;exitDx=0;exitDy=0;entryX=0.5;entryY=1;entryDx=0;entryDy=0;endArrow=block;endFill=0;" edge="1" parent="WIyWlLk6GJQsqaUBKTNV-1" source="8oIcxaGwzhKGt03ImPEF-10" target="8oIcxaGwzhKGt03ImPEF-9">
          <mxGeometry relative="1" as="geometry" />
        </mxCell>
        <mxCell id="8oIcxaGwzhKGt03ImPEF-15" style="edgeStyle=orthogonalEdgeStyle;rounded=0;orthogonalLoop=1;jettySize=auto;html=1;exitX=0;exitY=0.5;exitDx=0;exitDy=0;entryX=0.5;entryY=1;entryDx=0;entryDy=0;endArrow=block;endFill=0;" edge="1" parent="WIyWlLk6GJQsqaUBKTNV-1" source="8oIcxaGwzhKGt03ImPEF-10" target="8oIcxaGwzhKGt03ImPEF-8">
          <mxGeometry relative="1" as="geometry" />
        </mxCell>
        <mxCell id="8oIcxaGwzhKGt03ImPEF-18" value="No" style="edgeLabel;html=1;align=center;verticalAlign=middle;resizable=0;points=[];" vertex="1" connectable="0" parent="8oIcxaGwzhKGt03ImPEF-15">
          <mxGeometry x="-0.7989" y="-1" relative="1" as="geometry">
            <mxPoint as="offset" />
          </mxGeometry>
        </mxCell>
        <mxCell id="8oIcxaGwzhKGt03ImPEF-16" style="edgeStyle=orthogonalEdgeStyle;rounded=0;orthogonalLoop=1;jettySize=auto;html=1;exitX=1;exitY=0.5;exitDx=0;exitDy=0;entryX=0;entryY=0.5;entryDx=0;entryDy=0;" edge="1" parent="WIyWlLk6GJQsqaUBKTNV-1" source="8oIcxaGwzhKGt03ImPEF-10" target="8oIcxaGwzhKGt03ImPEF-1">
          <mxGeometry relative="1" as="geometry" />
        </mxCell>
        <mxCell id="8oIcxaGwzhKGt03ImPEF-17" value="Yes" style="edgeLabel;html=1;align=center;verticalAlign=middle;resizable=0;points=[];" vertex="1" connectable="0" parent="8oIcxaGwzhKGt03ImPEF-16">
          <mxGeometry x="-0.188" y="-1" relative="1" as="geometry">
            <mxPoint as="offset" />
          </mxGeometry>
        </mxCell>
        <mxCell id="8oIcxaGwzhKGt03ImPEF-10" value="Logged in" style="rhombus;whiteSpace=wrap;html=1;shadow=0;fontFamily=Helvetica;fontSize=12;align=center;strokeWidth=1;spacing=6;spacingTop=-4;" vertex="1" parent="WIyWlLk6GJQsqaUBKTNV-1">
          <mxGeometry x="379" y="-70" width="100" height="80" as="geometry" />
        </mxCell>
        <mxCell id="8oIcxaGwzhKGt03ImPEF-11" value="Option/Choice" style="rhombus;whiteSpace=wrap;html=1;shadow=0;fontFamily=Helvetica;fontSize=12;align=center;strokeWidth=1;spacing=6;spacingTop=-4;" vertex="1" parent="WIyWlLk6GJQsqaUBKTNV-1">
          <mxGeometry x="930" y="-120" width="100" height="80" as="geometry" />
        </mxCell>
        <mxCell id="8oIcxaGwzhKGt03ImPEF-19" style="edgeStyle=orthogonalEdgeStyle;rounded=0;orthogonalLoop=1;jettySize=auto;html=1;exitX=1;exitY=0.5;exitDx=0;exitDy=0;entryX=0;entryY=0.5;entryDx=0;entryDy=0;endArrow=block;endFill=0;" edge="1" parent="WIyWlLk6GJQsqaUBKTNV-1" source="8oIcxaGwzhKGt03ImPEF-12" target="BBG6zxxmUqPpm9BTkGRF-10">
          <mxGeometry relative="1" as="geometry" />
        </mxCell>
        <mxCell id="8oIcxaGwzhKGt03ImPEF-20" style="edgeStyle=orthogonalEdgeStyle;rounded=0;orthogonalLoop=1;jettySize=auto;html=1;exitX=1;exitY=0.5;exitDx=0;exitDy=0;entryX=0;entryY=0.5;entryDx=0;entryDy=0;endArrow=block;endFill=0;" edge="1" parent="WIyWlLk6GJQsqaUBKTNV-1" source="8oIcxaGwzhKGt03ImPEF-12" target="WIyWlLk6GJQsqaUBKTNV-3">
          <mxGeometry relative="1" as="geometry" />
        </mxCell>
        <mxCell id="8oIcxaGwzhKGt03ImPEF-12" value="Landing page" style="ellipse;whiteSpace=wrap;html=1;strokeColor=#000000;fillColor=#FFFFFF;" vertex="1" parent="WIyWlLk6GJQsqaUBKTNV-1">
          <mxGeometry x="140" y="84" width="120" height="80" as="geometry" />
        </mxCell>
        <mxCell id="vHQHd2Vcu1w6jcTQlvI8-0" style="edgeStyle=orthogonalEdgeStyle;rounded=0;orthogonalLoop=1;jettySize=auto;html=1;entryX=0.75;entryY=0;entryDx=0;entryDy=0;endArrow=block;endFill=0;" edge="1" parent="WIyWlLk6GJQsqaUBKTNV-1">
          <mxGeometry relative="1" as="geometry">
            <mxPoint x="940.5" y="220" as="sourcePoint" />
            <mxPoint x="1019.5" y="220" as="targetPoint" />
          </mxGeometry>
        </mxCell>
        <mxCell id="vHQHd2Vcu1w6jcTQlvI8-2" value="Visitor" style="edgeLabel;html=1;align=center;verticalAlign=middle;resizable=0;points=[];" vertex="1" connectable="0" parent="vHQHd2Vcu1w6jcTQlvI8-0">
          <mxGeometry x="-0.2785" y="-1" relative="1" as="geometry">
            <mxPoint x="1" y="-11" as="offset" />
          </mxGeometry>
        </mxCell>
        <mxCell id="vHQHd2Vcu1w6jcTQlvI8-3" style="edgeStyle=orthogonalEdgeStyle;rounded=0;orthogonalLoop=1;jettySize=auto;html=1;entryX=0.75;entryY=0;entryDx=0;entryDy=0;endArrow=block;endFill=1;" edge="1" parent="WIyWlLk6GJQsqaUBKTNV-1">
          <mxGeometry relative="1" as="geometry">
            <mxPoint x="940.5" y="250" as="sourcePoint" />
            <mxPoint x="1019.5" y="250" as="targetPoint" />
          </mxGeometry>
        </mxCell>
        <mxCell id="vHQHd2Vcu1w6jcTQlvI8-4" value="User" style="edgeLabel;html=1;align=center;verticalAlign=middle;resizable=0;points=[];" vertex="1" connectable="0" parent="vHQHd2Vcu1w6jcTQlvI8-3">
          <mxGeometry x="-0.2785" y="-1" relative="1" as="geometry">
            <mxPoint x="2" y="-11" as="offset" />
          </mxGeometry>
        </mxCell>
        <mxCell id="vHQHd2Vcu1w6jcTQlvI8-5" value="Visitor only" style="rounded=0;whiteSpace=wrap;html=1;strokeColor=#00FF00;" vertex="1" parent="WIyWlLk6GJQsqaUBKTNV-1">
          <mxGeometry x="920" y="345" width="120" height="60" as="geometry" />
        </mxCell>
        <mxCell id="vHQHd2Vcu1w6jcTQlvI8-6" value="User only" style="rounded=0;whiteSpace=wrap;html=1;strokeColor=#FF0000;" vertex="1" parent="WIyWlLk6GJQsqaUBKTNV-1">
          <mxGeometry x="920" y="270" width="120" height="60" as="geometry" />
        </mxCell>
      </root>
    </mxGraphModel>
  </diagram>
  <diagram id="lhqs2I4aF14N0nzRoy8M" name="Navbar">
    <mxGraphModel dx="1102" dy="1763" grid="1" gridSize="10" guides="1" tooltips="1" connect="1" arrows="1" fold="1" page="1" pageScale="1" pageWidth="827" pageHeight="1169" math="0" shadow="0">
      <root>
        <mxCell id="N7b4LevpHlUKcWKtn8Tx-0" />
        <mxCell id="N7b4LevpHlUKcWKtn8Tx-1" parent="N7b4LevpHlUKcWKtn8Tx-0" />
        <mxCell id="j0gqsD87kAEbVLT2sqbZ-0" value="" style="edgeStyle=orthogonalEdgeStyle;rounded=0;orthogonalLoop=1;jettySize=auto;html=1;entryX=0.5;entryY=0;entryDx=0;entryDy=0;exitX=0.5;exitY=1;exitDx=0;exitDy=0;" edge="1" parent="N7b4LevpHlUKcWKtn8Tx-1" source="j0gqsD87kAEbVLT2sqbZ-8" target="j0gqsD87kAEbVLT2sqbZ-4">
          <mxGeometry relative="1" as="geometry">
            <mxPoint x="333" y="60" as="sourcePoint" />
            <mxPoint x="283" y="90" as="targetPoint" />
          </mxGeometry>
        </mxCell>
        <mxCell id="j0gqsD87kAEbVLT2sqbZ-1" value="&lt;div&gt;Drawing Board&lt;/div&gt;" style="rounded=1;whiteSpace=wrap;html=1;fontSize=12;glass=0;strokeWidth=1;shadow=0;fillColor=#dae8fc;strokeColor=#000000;" vertex="1" parent="N7b4LevpHlUKcWKtn8Tx-1">
          <mxGeometry x="200" y="189" width="120" height="40" as="geometry" />
        </mxCell>
        <mxCell id="j0gqsD87kAEbVLT2sqbZ-2" style="edgeStyle=orthogonalEdgeStyle;rounded=0;orthogonalLoop=1;jettySize=auto;html=1;exitX=0;exitY=0.5;exitDx=0;exitDy=0;entryX=1;entryY=0.5;entryDx=0;entryDy=0;endArrow=block;endFill=0;" edge="1" parent="N7b4LevpHlUKcWKtn8Tx-1" source="j0gqsD87kAEbVLT2sqbZ-4" target="j0gqsD87kAEbVLT2sqbZ-1">
          <mxGeometry relative="1" as="geometry" />
        </mxCell>
        <mxCell id="j0gqsD87kAEbVLT2sqbZ-3" style="edgeStyle=orthogonalEdgeStyle;rounded=0;orthogonalLoop=1;jettySize=auto;html=1;exitX=1;exitY=0.5;exitDx=0;exitDy=0;entryX=0;entryY=0.5;entryDx=0;entryDy=0;" edge="1" parent="N7b4LevpHlUKcWKtn8Tx-1" source="j0gqsD87kAEbVLT2sqbZ-4" target="j0gqsD87kAEbVLT2sqbZ-5">
          <mxGeometry relative="1" as="geometry">
            <mxPoint x="522" y="30" as="targetPoint" />
          </mxGeometry>
        </mxCell>
        <mxCell id="j0gqsD87kAEbVLT2sqbZ-4" value="&lt;div&gt;Switch gallery/&lt;/div&gt;&lt;div&gt;drawing board&lt;/div&gt;" style="rhombus;whiteSpace=wrap;html=1;shadow=0;fontFamily=Helvetica;fontSize=12;align=center;strokeWidth=1;spacing=6;spacingTop=-4;" vertex="1" parent="N7b4LevpHlUKcWKtn8Tx-1">
          <mxGeometry x="379" y="169" width="100" height="80" as="geometry" />
        </mxCell>
        <mxCell id="j0gqsD87kAEbVLT2sqbZ-5" value="*Public*&lt;br&gt;&lt;div&gt;Gallery page&lt;/div&gt;" style="rounded=1;whiteSpace=wrap;html=1;fontSize=12;glass=0;strokeWidth=1;shadow=0;fillColor=#DAE8FC;" vertex="1" parent="N7b4LevpHlUKcWKtn8Tx-1">
          <mxGeometry x="522" y="189" width="120" height="40" as="geometry" />
        </mxCell>
        <mxCell id="j0gqsD87kAEbVLT2sqbZ-6" style="edgeStyle=orthogonalEdgeStyle;rounded=0;orthogonalLoop=1;jettySize=auto;html=1;exitX=0.75;exitY=1;exitDx=0;exitDy=0;entryX=0.25;entryY=0;entryDx=0;entryDy=0;endArrow=block;endFill=1;" edge="1" parent="N7b4LevpHlUKcWKtn8Tx-1" source="j0gqsD87kAEbVLT2sqbZ-12" target="j0gqsD87kAEbVLT2sqbZ-9">
          <mxGeometry relative="1" as="geometry" />
        </mxCell>
        <mxCell id="j0gqsD87kAEbVLT2sqbZ-7" style="edgeStyle=orthogonalEdgeStyle;rounded=0;orthogonalLoop=1;jettySize=auto;html=1;exitX=0.5;exitY=0;exitDx=0;exitDy=0;entryX=0.5;entryY=1;entryDx=0;entryDy=0;" edge="1" parent="N7b4LevpHlUKcWKtn8Tx-1" source="j0gqsD87kAEbVLT2sqbZ-8" target="j0gqsD87kAEbVLT2sqbZ-22">
          <mxGeometry relative="1" as="geometry" />
        </mxCell>
        <mxCell id="j0gqsD87kAEbVLT2sqbZ-8" value="&lt;div&gt;Navbar&lt;/div&gt;" style="rounded=1;whiteSpace=wrap;html=1;fontSize=12;glass=0;strokeWidth=1;shadow=0;fillColor=#dae8fc;strokeColor=#000000;" vertex="1" parent="N7b4LevpHlUKcWKtn8Tx-1">
          <mxGeometry x="369" y="28" width="120" height="40" as="geometry" />
        </mxCell>
        <mxCell id="j0gqsD87kAEbVLT2sqbZ-9" value="&lt;div&gt;*Own* &lt;br&gt;&lt;/div&gt;&lt;div&gt;Gallery page&lt;/div&gt;" style="rounded=1;whiteSpace=wrap;html=1;fontSize=12;glass=0;strokeWidth=1;shadow=0;fillColor=#dae8fc;strokeColor=#FF0000;" vertex="1" parent="N7b4LevpHlUKcWKtn8Tx-1">
          <mxGeometry x="662" y="189" width="120" height="40" as="geometry" />
        </mxCell>
        <mxCell id="j0gqsD87kAEbVLT2sqbZ-10" style="edgeStyle=orthogonalEdgeStyle;rounded=0;orthogonalLoop=1;jettySize=auto;html=1;exitX=1;exitY=0.25;exitDx=0;exitDy=0;entryX=0.5;entryY=1;entryDx=0;entryDy=0;endArrow=block;endFill=1;" edge="1" parent="N7b4LevpHlUKcWKtn8Tx-1" source="j0gqsD87kAEbVLT2sqbZ-12" target="j0gqsD87kAEbVLT2sqbZ-13">
          <mxGeometry relative="1" as="geometry">
            <mxPoint x="288" y="276" as="targetPoint" />
          </mxGeometry>
        </mxCell>
        <mxCell id="j0gqsD87kAEbVLT2sqbZ-11" style="edgeStyle=orthogonalEdgeStyle;rounded=0;orthogonalLoop=1;jettySize=auto;html=1;entryX=0.5;entryY=1;entryDx=0;entryDy=0;endArrow=block;endFill=1;exitX=0;exitY=0;exitDx=0;exitDy=0;" edge="1" parent="N7b4LevpHlUKcWKtn8Tx-1" source="j0gqsD87kAEbVLT2sqbZ-12" target="j0gqsD87kAEbVLT2sqbZ-14">
          <mxGeometry relative="1" as="geometry">
            <mxPoint x="160" y="190" as="sourcePoint" />
            <mxPoint x="172" y="278" as="targetPoint" />
          </mxGeometry>
        </mxCell>
        <mxCell id="j0gqsD87kAEbVLT2sqbZ-12" value="&lt;div&gt;User name&lt;/div&gt;&lt;div&gt;mpodal menu&lt;br&gt;&lt;/div&gt;" style="shape=parallelogram;perimeter=parallelogramPerimeter;whiteSpace=wrap;html=1;fixedSize=1;strokeColor=#FF0000;" vertex="1" parent="N7b4LevpHlUKcWKtn8Tx-1">
          <mxGeometry x="602" y="-60" width="120" height="60" as="geometry" />
        </mxCell>
        <mxCell id="j0gqsD87kAEbVLT2sqbZ-13" value="Log out" style="shape=parallelogram;perimeter=parallelogramPerimeter;whiteSpace=wrap;html=1;fixedSize=1;strokeColor=#FF0000;" vertex="1" parent="N7b4LevpHlUKcWKtn8Tx-1">
          <mxGeometry x="750" y="-131" width="120" height="60" as="geometry" />
        </mxCell>
        <mxCell id="j0gqsD87kAEbVLT2sqbZ-14" value="Delete account" style="shape=parallelogram;perimeter=parallelogramPerimeter;whiteSpace=wrap;html=1;fixedSize=1;strokeColor=#FF0000;" vertex="1" parent="N7b4LevpHlUKcWKtn8Tx-1">
          <mxGeometry x="479" y="-131" width="120" height="60" as="geometry" />
        </mxCell>
        <mxCell id="j0gqsD87kAEbVLT2sqbZ-15" value="Sign up" style="shape=parallelogram;perimeter=parallelogramPerimeter;whiteSpace=wrap;html=1;fixedSize=1;strokeColor=#00FF00;" vertex="1" parent="N7b4LevpHlUKcWKtn8Tx-1">
          <mxGeometry x="170" y="-131" width="120" height="60" as="geometry" />
        </mxCell>
        <mxCell id="j0gqsD87kAEbVLT2sqbZ-16" value="&lt;div&gt;Log in&lt;/div&gt;" style="shape=parallelogram;perimeter=parallelogramPerimeter;whiteSpace=wrap;html=1;fixedSize=1;strokeColor=#00FF00;" vertex="1" parent="N7b4LevpHlUKcWKtn8Tx-1">
          <mxGeometry x="294" y="-131" width="120" height="60" as="geometry" />
        </mxCell>
        <mxCell id="j0gqsD87kAEbVLT2sqbZ-17" style="edgeStyle=orthogonalEdgeStyle;rounded=0;orthogonalLoop=1;jettySize=auto;html=1;exitX=0;exitY=0.5;exitDx=0;exitDy=0;entryX=0.5;entryY=1;entryDx=0;entryDy=0;endArrow=block;endFill=0;" edge="1" parent="N7b4LevpHlUKcWKtn8Tx-1" source="j0gqsD87kAEbVLT2sqbZ-22" target="j0gqsD87kAEbVLT2sqbZ-16">
          <mxGeometry relative="1" as="geometry" />
        </mxCell>
        <mxCell id="j0gqsD87kAEbVLT2sqbZ-18" style="edgeStyle=orthogonalEdgeStyle;rounded=0;orthogonalLoop=1;jettySize=auto;html=1;exitX=0;exitY=0.5;exitDx=0;exitDy=0;entryX=0.5;entryY=1;entryDx=0;entryDy=0;endArrow=block;endFill=0;" edge="1" parent="N7b4LevpHlUKcWKtn8Tx-1" source="j0gqsD87kAEbVLT2sqbZ-22" target="j0gqsD87kAEbVLT2sqbZ-15">
          <mxGeometry relative="1" as="geometry" />
        </mxCell>
        <mxCell id="j0gqsD87kAEbVLT2sqbZ-19" value="No" style="edgeLabel;html=1;align=center;verticalAlign=middle;resizable=0;points=[];" vertex="1" connectable="0" parent="j0gqsD87kAEbVLT2sqbZ-18">
          <mxGeometry x="-0.7989" y="-1" relative="1" as="geometry">
            <mxPoint as="offset" />
          </mxGeometry>
        </mxCell>
        <mxCell id="j0gqsD87kAEbVLT2sqbZ-20" style="edgeStyle=orthogonalEdgeStyle;rounded=0;orthogonalLoop=1;jettySize=auto;html=1;exitX=1;exitY=0.5;exitDx=0;exitDy=0;entryX=0;entryY=0.5;entryDx=0;entryDy=0;" edge="1" parent="N7b4LevpHlUKcWKtn8Tx-1" source="j0gqsD87kAEbVLT2sqbZ-22" target="j0gqsD87kAEbVLT2sqbZ-12">
          <mxGeometry relative="1" as="geometry" />
        </mxCell>
        <mxCell id="j0gqsD87kAEbVLT2sqbZ-21" value="Yes" style="edgeLabel;html=1;align=center;verticalAlign=middle;resizable=0;points=[];" vertex="1" connectable="0" parent="j0gqsD87kAEbVLT2sqbZ-20">
          <mxGeometry x="-0.188" y="-1" relative="1" as="geometry">
            <mxPoint as="offset" />
          </mxGeometry>
        </mxCell>
        <mxCell id="j0gqsD87kAEbVLT2sqbZ-22" value="Logged in" style="rhombus;whiteSpace=wrap;html=1;shadow=0;fontFamily=Helvetica;fontSize=12;align=center;strokeWidth=1;spacing=6;spacingTop=-4;" vertex="1" parent="N7b4LevpHlUKcWKtn8Tx-1">
          <mxGeometry x="379" y="-70" width="100" height="80" as="geometry" />
        </mxCell>
        <mxCell id="w0dogD-elBksJxMbReuT-0" value="" style="endArrow=none;dashed=1;html=1;dashPattern=1 3;strokeWidth=2;rounded=0;" edge="1" parent="N7b4LevpHlUKcWKtn8Tx-1">
          <mxGeometry width="50" height="50" relative="1" as="geometry">
            <mxPoint x="160" y="130" as="sourcePoint" />
            <mxPoint x="920" y="130" as="targetPoint" />
          </mxGeometry>
        </mxCell>
        <mxCell id="wGRGL1g9ejD4F3fLpRML-0" value="input/output" style="shape=parallelogram;perimeter=parallelogramPerimeter;whiteSpace=wrap;html=1;fixedSize=1;" vertex="1" parent="N7b4LevpHlUKcWKtn8Tx-1">
          <mxGeometry x="948" y="-37" width="120" height="60" as="geometry" />
        </mxCell>
        <mxCell id="wGRGL1g9ejD4F3fLpRML-1" value="React Component" style="rounded=1;whiteSpace=wrap;html=1;fillColor=#dae8fc;strokeColor=#000000;" vertex="1" parent="N7b4LevpHlUKcWKtn8Tx-1">
          <mxGeometry x="948" y="-111" width="120" height="60" as="geometry" />
        </mxCell>
        <mxCell id="wGRGL1g9ejD4F3fLpRML-2" value="Process/operation" style="rounded=0;whiteSpace=wrap;html=1;" vertex="1" parent="N7b4LevpHlUKcWKtn8Tx-1">
          <mxGeometry x="948" y="39" width="120" height="60" as="geometry" />
        </mxCell>
        <mxCell id="wGRGL1g9ejD4F3fLpRML-3" value="Option/Choice" style="rhombus;whiteSpace=wrap;html=1;shadow=0;fontFamily=Helvetica;fontSize=12;align=center;strokeWidth=1;spacing=6;spacingTop=-4;" vertex="1" parent="N7b4LevpHlUKcWKtn8Tx-1">
          <mxGeometry x="958" y="-201" width="100" height="80" as="geometry" />
        </mxCell>
        <mxCell id="wGRGL1g9ejD4F3fLpRML-4" style="edgeStyle=orthogonalEdgeStyle;rounded=0;orthogonalLoop=1;jettySize=auto;html=1;entryX=0.75;entryY=0;entryDx=0;entryDy=0;endArrow=block;endFill=0;" edge="1" parent="N7b4LevpHlUKcWKtn8Tx-1">
          <mxGeometry relative="1" as="geometry">
            <mxPoint x="968.5" y="139" as="sourcePoint" />
            <mxPoint x="1047.5" y="139" as="targetPoint" />
          </mxGeometry>
        </mxCell>
        <mxCell id="wGRGL1g9ejD4F3fLpRML-5" value="Visitor" style="edgeLabel;html=1;align=center;verticalAlign=middle;resizable=0;points=[];" vertex="1" connectable="0" parent="wGRGL1g9ejD4F3fLpRML-4">
          <mxGeometry x="-0.2785" y="-1" relative="1" as="geometry">
            <mxPoint x="1" y="-11" as="offset" />
          </mxGeometry>
        </mxCell>
        <mxCell id="wGRGL1g9ejD4F3fLpRML-6" style="edgeStyle=orthogonalEdgeStyle;rounded=0;orthogonalLoop=1;jettySize=auto;html=1;entryX=0.75;entryY=0;entryDx=0;entryDy=0;endArrow=block;endFill=1;" edge="1" parent="N7b4LevpHlUKcWKtn8Tx-1">
          <mxGeometry relative="1" as="geometry">
            <mxPoint x="968.5" y="169" as="sourcePoint" />
            <mxPoint x="1047.5" y="169" as="targetPoint" />
          </mxGeometry>
        </mxCell>
        <mxCell id="wGRGL1g9ejD4F3fLpRML-7" value="User" style="edgeLabel;html=1;align=center;verticalAlign=middle;resizable=0;points=[];" vertex="1" connectable="0" parent="wGRGL1g9ejD4F3fLpRML-6">
          <mxGeometry x="-0.2785" y="-1" relative="1" as="geometry">
            <mxPoint x="2" y="-11" as="offset" />
          </mxGeometry>
        </mxCell>
        <mxCell id="wGRGL1g9ejD4F3fLpRML-8" value="Visitor only" style="rounded=0;whiteSpace=wrap;html=1;strokeColor=#00FF00;" vertex="1" parent="N7b4LevpHlUKcWKtn8Tx-1">
          <mxGeometry x="948" y="264" width="120" height="60" as="geometry" />
        </mxCell>
        <mxCell id="wGRGL1g9ejD4F3fLpRML-9" value="User only" style="rounded=0;whiteSpace=wrap;html=1;strokeColor=#FF0000;" vertex="1" parent="N7b4LevpHlUKcWKtn8Tx-1">
          <mxGeometry x="948" y="189" width="120" height="60" as="geometry" />
        </mxCell>
      </root>
    </mxGraphModel>
  </diagram>
  <diagram id="EKPDFb6GG2Hj07Zanm1p" name="Gallery">
    <mxGraphModel dx="1102" dy="1763" grid="1" gridSize="10" guides="1" tooltips="1" connect="1" arrows="1" fold="1" page="1" pageScale="1" pageWidth="827" pageHeight="1169" math="0" shadow="0">
      <root>
        <mxCell id="94vNi-HU1PBsABV60xrB-0" />
        <mxCell id="94vNi-HU1PBsABV60xrB-1" parent="94vNi-HU1PBsABV60xrB-0" />
        <mxCell id="Ut4rWF0YUYlJzb927VsN-0" style="edgeStyle=orthogonalEdgeStyle;rounded=0;orthogonalLoop=1;jettySize=auto;html=1;exitX=0.5;exitY=1;exitDx=0;exitDy=0;entryX=0.5;entryY=0;entryDx=0;entryDy=0;endArrow=block;endFill=0;" edge="1" parent="94vNi-HU1PBsABV60xrB-1" source="Ut4rWF0YUYlJzb927VsN-2" target="Ut4rWF0YUYlJzb927VsN-13">
          <mxGeometry relative="1" as="geometry" />
        </mxCell>
        <mxCell id="Ut4rWF0YUYlJzb927VsN-1" style="edgeStyle=orthogonalEdgeStyle;rounded=0;orthogonalLoop=1;jettySize=auto;html=1;exitX=1;exitY=0.5;exitDx=0;exitDy=0;entryX=0;entryY=0.5;entryDx=0;entryDy=0;endArrow=block;endFill=0;" edge="1" parent="94vNi-HU1PBsABV60xrB-1" source="Ut4rWF0YUYlJzb927VsN-2" target="Ut4rWF0YUYlJzb927VsN-11">
          <mxGeometry relative="1" as="geometry" />
        </mxCell>
        <mxCell id="Ut4rWF0YUYlJzb927VsN-2" value="*Public*&lt;br&gt;&lt;div&gt;Gallery page&lt;/div&gt;" style="rounded=1;whiteSpace=wrap;html=1;fontSize=12;glass=0;strokeWidth=1;shadow=0;fillColor=#DAE8FC;" vertex="1" parent="94vNi-HU1PBsABV60xrB-1">
          <mxGeometry x="522" y="104" width="120" height="40" as="geometry" />
        </mxCell>
        <mxCell id="Ut4rWF0YUYlJzb927VsN-3" style="edgeStyle=orthogonalEdgeStyle;rounded=0;orthogonalLoop=1;jettySize=auto;html=1;exitX=1;exitY=0.5;exitDx=0;exitDy=0;entryX=0.5;entryY=1;entryDx=0;entryDy=0;endArrow=block;endFill=1;" edge="1" parent="94vNi-HU1PBsABV60xrB-1" source="Ut4rWF0YUYlJzb927VsN-4" target="Ut4rWF0YUYlJzb927VsN-11">
          <mxGeometry relative="1" as="geometry" />
        </mxCell>
        <mxCell id="Ut4rWF0YUYlJzb927VsN-4" value="&lt;div&gt;*User*&lt;/div&gt;&lt;div&gt;Gallery page&lt;/div&gt;" style="rounded=1;whiteSpace=wrap;html=1;fontSize=12;glass=0;strokeWidth=1;shadow=0;fillColor=#dae8fc;strokeColor=#000000;" vertex="1" parent="94vNi-HU1PBsABV60xrB-1">
          <mxGeometry x="522" y="391" width="120" height="40" as="geometry" />
        </mxCell>
        <mxCell id="Ut4rWF0YUYlJzb927VsN-5" style="edgeStyle=orthogonalEdgeStyle;rounded=0;orthogonalLoop=1;jettySize=auto;html=1;exitX=0.5;exitY=1;exitDx=0;exitDy=0;entryX=0.617;entryY=-0.033;entryDx=0;entryDy=0;endArrow=block;endFill=0;entryPerimeter=0;" edge="1" parent="94vNi-HU1PBsABV60xrB-1" target="Ut4rWF0YUYlJzb927VsN-12" source="9owP8-Ct2SnFZB4wZjla-0">
          <mxGeometry relative="1" as="geometry">
            <mxPoint x="722" y="229" as="sourcePoint" />
          </mxGeometry>
        </mxCell>
        <mxCell id="Ut4rWF0YUYlJzb927VsN-6" style="edgeStyle=orthogonalEdgeStyle;rounded=0;orthogonalLoop=1;jettySize=auto;html=1;exitX=1;exitY=0.5;exitDx=0;exitDy=0;entryX=1;entryY=0.5;entryDx=0;entryDy=0;endArrow=block;endFill=1;" edge="1" parent="94vNi-HU1PBsABV60xrB-1" target="Ut4rWF0YUYlJzb927VsN-11" source="9owP8-Ct2SnFZB4wZjla-0">
          <mxGeometry relative="1" as="geometry">
            <mxPoint x="782" y="209" as="sourcePoint" />
          </mxGeometry>
        </mxCell>
        <mxCell id="Ut4rWF0YUYlJzb927VsN-7" style="edgeStyle=orthogonalEdgeStyle;rounded=0;orthogonalLoop=1;jettySize=auto;html=1;exitX=0.5;exitY=1;exitDx=0;exitDy=0;entryX=0.5;entryY=0;entryDx=0;entryDy=0;endArrow=block;endFill=0;" edge="1" parent="94vNi-HU1PBsABV60xrB-1" source="Ut4rWF0YUYlJzb927VsN-13" target="Ut4rWF0YUYlJzb927VsN-4">
          <mxGeometry relative="1" as="geometry" />
        </mxCell>
        <mxCell id="Ut4rWF0YUYlJzb927VsN-8" style="edgeStyle=orthogonalEdgeStyle;rounded=0;orthogonalLoop=1;jettySize=auto;html=1;exitX=1;exitY=0.5;exitDx=0;exitDy=0;entryX=0.25;entryY=1;entryDx=0;entryDy=0;endArrow=block;endFill=1;" edge="1" parent="94vNi-HU1PBsABV60xrB-1" source="Ut4rWF0YUYlJzb927VsN-13" target="9owP8-Ct2SnFZB4wZjla-0">
          <mxGeometry relative="1" as="geometry">
            <mxPoint x="692" y="229" as="targetPoint" />
          </mxGeometry>
        </mxCell>
        <mxCell id="Ut4rWF0YUYlJzb927VsN-9" style="edgeStyle=orthogonalEdgeStyle;rounded=0;orthogonalLoop=1;jettySize=auto;html=1;exitX=0.5;exitY=0;exitDx=0;exitDy=0;entryX=0.5;entryY=1;entryDx=0;entryDy=0;endArrow=block;endFill=0;" edge="1" parent="94vNi-HU1PBsABV60xrB-1" source="Ut4rWF0YUYlJzb927VsN-11" target="Ut4rWF0YUYlJzb927VsN-10">
          <mxGeometry relative="1" as="geometry" />
        </mxCell>
        <mxCell id="Ut4rWF0YUYlJzb927VsN-10" value="&lt;div&gt;Gallery page&lt;/div&gt;&amp;nbsp;w full size image" style="rounded=1;whiteSpace=wrap;html=1;fontSize=12;glass=0;strokeWidth=1;shadow=0;fillColor=#dae8fc;strokeColor=#000000;" vertex="1" parent="94vNi-HU1PBsABV60xrB-1">
          <mxGeometry x="736" y="10" width="120" height="40" as="geometry" />
        </mxCell>
        <mxCell id="Ut4rWF0YUYlJzb927VsN-11" value="&lt;div&gt;Click on a picture&lt;/div&gt;" style="shape=parallelogram;perimeter=parallelogramPerimeter;whiteSpace=wrap;html=1;fixedSize=1;" vertex="1" parent="94vNi-HU1PBsABV60xrB-1">
          <mxGeometry x="736" y="94" width="120" height="60" as="geometry" />
        </mxCell>
        <mxCell id="Ut4rWF0YUYlJzb927VsN-12" value="Set image privacy" style="shape=parallelogram;perimeter=parallelogramPerimeter;whiteSpace=wrap;html=1;fixedSize=1;strokeColor=#FF0000;" vertex="1" parent="94vNi-HU1PBsABV60xrB-1">
          <mxGeometry x="648" y="320" width="120" height="60" as="geometry" />
        </mxCell>
        <mxCell id="Ut4rWF0YUYlJzb927VsN-13" value="Click on user" style="shape=parallelogram;perimeter=parallelogramPerimeter;whiteSpace=wrap;html=1;fixedSize=1;" vertex="1" parent="94vNi-HU1PBsABV60xrB-1">
          <mxGeometry x="522" y="267" width="120" height="60" as="geometry" />
        </mxCell>
        <mxCell id="9owP8-Ct2SnFZB4wZjla-0" value="&lt;div&gt;*Own* &lt;br&gt;&lt;/div&gt;&lt;div&gt;Gallery page&lt;/div&gt;" style="rounded=1;whiteSpace=wrap;html=1;fontSize=12;glass=0;strokeWidth=1;shadow=0;fillColor=#dae8fc;strokeColor=#FF0000;" vertex="1" parent="94vNi-HU1PBsABV60xrB-1">
          <mxGeometry x="662" y="189" width="120" height="40" as="geometry" />
        </mxCell>
        <mxCell id="FcXwIHN7FmCj-YFU9cbP-0" value="input/output" style="shape=parallelogram;perimeter=parallelogramPerimeter;whiteSpace=wrap;html=1;fixedSize=1;" vertex="1" parent="94vNi-HU1PBsABV60xrB-1">
          <mxGeometry x="900" y="124" width="120" height="60" as="geometry" />
        </mxCell>
        <mxCell id="FcXwIHN7FmCj-YFU9cbP-1" value="React Component" style="rounded=1;whiteSpace=wrap;html=1;fillColor=#dae8fc;strokeColor=#000000;" vertex="1" parent="94vNi-HU1PBsABV60xrB-1">
          <mxGeometry x="900" y="50" width="120" height="60" as="geometry" />
        </mxCell>
        <mxCell id="FcXwIHN7FmCj-YFU9cbP-2" value="Process/operation" style="rounded=0;whiteSpace=wrap;html=1;" vertex="1" parent="94vNi-HU1PBsABV60xrB-1">
          <mxGeometry x="900" y="200" width="120" height="60" as="geometry" />
        </mxCell>
        <mxCell id="FcXwIHN7FmCj-YFU9cbP-3" value="Option/Choice" style="rhombus;whiteSpace=wrap;html=1;shadow=0;fontFamily=Helvetica;fontSize=12;align=center;strokeWidth=1;spacing=6;spacingTop=-4;" vertex="1" parent="94vNi-HU1PBsABV60xrB-1">
          <mxGeometry x="910" y="-40" width="100" height="80" as="geometry" />
        </mxCell>
        <mxCell id="FcXwIHN7FmCj-YFU9cbP-4" style="edgeStyle=orthogonalEdgeStyle;rounded=0;orthogonalLoop=1;jettySize=auto;html=1;entryX=0.75;entryY=0;entryDx=0;entryDy=0;endArrow=block;endFill=0;" edge="1" parent="94vNi-HU1PBsABV60xrB-1">
          <mxGeometry relative="1" as="geometry">
            <mxPoint x="920.5" y="300" as="sourcePoint" />
            <mxPoint x="999.5" y="300" as="targetPoint" />
          </mxGeometry>
        </mxCell>
        <mxCell id="FcXwIHN7FmCj-YFU9cbP-5" value="Visitor" style="edgeLabel;html=1;align=center;verticalAlign=middle;resizable=0;points=[];" vertex="1" connectable="0" parent="FcXwIHN7FmCj-YFU9cbP-4">
          <mxGeometry x="-0.2785" y="-1" relative="1" as="geometry">
            <mxPoint x="1" y="-11" as="offset" />
          </mxGeometry>
        </mxCell>
        <mxCell id="FcXwIHN7FmCj-YFU9cbP-6" style="edgeStyle=orthogonalEdgeStyle;rounded=0;orthogonalLoop=1;jettySize=auto;html=1;entryX=0.75;entryY=0;entryDx=0;entryDy=0;endArrow=block;endFill=1;" edge="1" parent="94vNi-HU1PBsABV60xrB-1">
          <mxGeometry relative="1" as="geometry">
            <mxPoint x="920.5" y="330" as="sourcePoint" />
            <mxPoint x="999.5" y="330" as="targetPoint" />
          </mxGeometry>
        </mxCell>
        <mxCell id="FcXwIHN7FmCj-YFU9cbP-7" value="User" style="edgeLabel;html=1;align=center;verticalAlign=middle;resizable=0;points=[];" vertex="1" connectable="0" parent="FcXwIHN7FmCj-YFU9cbP-6">
          <mxGeometry x="-0.2785" y="-1" relative="1" as="geometry">
            <mxPoint x="2" y="-11" as="offset" />
          </mxGeometry>
        </mxCell>
        <mxCell id="FcXwIHN7FmCj-YFU9cbP-8" value="Visitor only" style="rounded=0;whiteSpace=wrap;html=1;strokeColor=#00FF00;" vertex="1" parent="94vNi-HU1PBsABV60xrB-1">
          <mxGeometry x="900" y="425" width="120" height="60" as="geometry" />
        </mxCell>
        <mxCell id="FcXwIHN7FmCj-YFU9cbP-9" value="User only" style="rounded=0;whiteSpace=wrap;html=1;strokeColor=#FF0000;" vertex="1" parent="94vNi-HU1PBsABV60xrB-1">
          <mxGeometry x="900" y="350" width="120" height="60" as="geometry" />
        </mxCell>
      </root>
    </mxGraphModel>
  </diagram>
  <diagram id="vIx_M0EpggFeqQVisWE2" name="Erthing user">
    <mxGraphModel dx="1102" dy="1763" grid="1" gridSize="10" guides="1" tooltips="1" connect="1" arrows="1" fold="1" page="1" pageScale="1" pageWidth="827" pageHeight="1169" math="0" shadow="0">
      <root>
        <mxCell id="-oJdppCjLApdtGuJOU42-0" />
        <mxCell id="-oJdppCjLApdtGuJOU42-1" parent="-oJdppCjLApdtGuJOU42-0" />
        <mxCell id="ENRvvky9fsEBMCVeL9Y0-0" value="" style="edgeStyle=orthogonalEdgeStyle;rounded=0;orthogonalLoop=1;jettySize=auto;html=1;entryX=0.5;entryY=0;entryDx=0;entryDy=0;exitX=0.5;exitY=1;exitDx=0;exitDy=0;" edge="1" parent="-oJdppCjLApdtGuJOU42-1" source="ENRvvky9fsEBMCVeL9Y0-11" target="ENRvvky9fsEBMCVeL9Y0-5">
          <mxGeometry relative="1" as="geometry">
            <mxPoint x="333" y="60" as="sourcePoint" />
            <mxPoint x="283" y="90" as="targetPoint" />
          </mxGeometry>
        </mxCell>
        <mxCell id="ENRvvky9fsEBMCVeL9Y0-1" style="edgeStyle=orthogonalEdgeStyle;rounded=0;orthogonalLoop=1;jettySize=auto;html=1;exitX=0.5;exitY=1;exitDx=0;exitDy=0;entryX=0.5;entryY=0;entryDx=0;entryDy=0;endArrow=block;endFill=0;" edge="1" parent="-oJdppCjLApdtGuJOU42-1" source="ENRvvky9fsEBMCVeL9Y0-2" target="ENRvvky9fsEBMCVeL9Y0-36">
          <mxGeometry relative="1" as="geometry" />
        </mxCell>
        <mxCell id="ENRvvky9fsEBMCVeL9Y0-2" value="&lt;div&gt;Drawing Board&lt;/div&gt;" style="rounded=1;whiteSpace=wrap;html=1;fontSize=12;glass=0;strokeWidth=1;shadow=0;fillColor=#dae8fc;strokeColor=#000000;" vertex="1" parent="-oJdppCjLApdtGuJOU42-1">
          <mxGeometry x="369" y="207" width="120" height="40" as="geometry" />
        </mxCell>
        <mxCell id="ENRvvky9fsEBMCVeL9Y0-3" style="edgeStyle=orthogonalEdgeStyle;rounded=0;orthogonalLoop=1;jettySize=auto;html=1;exitX=0.5;exitY=1;exitDx=0;exitDy=0;entryX=0.5;entryY=0;entryDx=0;entryDy=0;endArrow=block;endFill=0;" edge="1" parent="-oJdppCjLApdtGuJOU42-1" source="ENRvvky9fsEBMCVeL9Y0-5" target="ENRvvky9fsEBMCVeL9Y0-2">
          <mxGeometry relative="1" as="geometry" />
        </mxCell>
        <mxCell id="ENRvvky9fsEBMCVeL9Y0-4" style="edgeStyle=orthogonalEdgeStyle;rounded=0;orthogonalLoop=1;jettySize=auto;html=1;exitX=1;exitY=0.5;exitDx=0;exitDy=0;entryX=0;entryY=0.5;entryDx=0;entryDy=0;" edge="1" parent="-oJdppCjLApdtGuJOU42-1" source="ENRvvky9fsEBMCVeL9Y0-5" target="ENRvvky9fsEBMCVeL9Y0-8">
          <mxGeometry relative="1" as="geometry">
            <mxPoint x="522" y="30" as="targetPoint" />
          </mxGeometry>
        </mxCell>
        <mxCell id="ENRvvky9fsEBMCVeL9Y0-5" value="&lt;div&gt;Switch gallery/&lt;/div&gt;&lt;div&gt;drawing board&lt;/div&gt;" style="rhombus;whiteSpace=wrap;html=1;shadow=0;fontFamily=Helvetica;fontSize=12;align=center;strokeWidth=1;spacing=6;spacingTop=-4;" vertex="1" parent="-oJdppCjLApdtGuJOU42-1">
          <mxGeometry x="379" y="84" width="100" height="80" as="geometry" />
        </mxCell>
        <mxCell id="ENRvvky9fsEBMCVeL9Y0-6" style="edgeStyle=orthogonalEdgeStyle;rounded=0;orthogonalLoop=1;jettySize=auto;html=1;exitX=0.5;exitY=1;exitDx=0;exitDy=0;entryX=0.5;entryY=0;entryDx=0;entryDy=0;endArrow=block;endFill=0;" edge="1" parent="-oJdppCjLApdtGuJOU42-1" source="ENRvvky9fsEBMCVeL9Y0-8" target="ENRvvky9fsEBMCVeL9Y0-30">
          <mxGeometry relative="1" as="geometry" />
        </mxCell>
        <mxCell id="ENRvvky9fsEBMCVeL9Y0-7" style="edgeStyle=orthogonalEdgeStyle;rounded=0;orthogonalLoop=1;jettySize=auto;html=1;exitX=1;exitY=0.5;exitDx=0;exitDy=0;entryX=0;entryY=0.5;entryDx=0;entryDy=0;endArrow=block;endFill=0;" edge="1" parent="-oJdppCjLApdtGuJOU42-1" source="ENRvvky9fsEBMCVeL9Y0-8" target="ENRvvky9fsEBMCVeL9Y0-28">
          <mxGeometry relative="1" as="geometry" />
        </mxCell>
        <mxCell id="ENRvvky9fsEBMCVeL9Y0-8" value="*Public*&lt;br&gt;&lt;div&gt;Gallery page&lt;/div&gt;" style="rounded=1;whiteSpace=wrap;html=1;fontSize=12;glass=0;strokeWidth=1;shadow=0;fillColor=#DAE8FC;" vertex="1" parent="-oJdppCjLApdtGuJOU42-1">
          <mxGeometry x="522" y="104" width="120" height="40" as="geometry" />
        </mxCell>
        <mxCell id="ENRvvky9fsEBMCVeL9Y0-9" style="edgeStyle=orthogonalEdgeStyle;rounded=0;orthogonalLoop=1;jettySize=auto;html=1;exitX=0.75;exitY=1;exitDx=0;exitDy=0;entryX=0.25;entryY=0;entryDx=0;entryDy=0;endArrow=block;endFill=1;" edge="1" parent="-oJdppCjLApdtGuJOU42-1" source="ENRvvky9fsEBMCVeL9Y0-32" target="ENRvvky9fsEBMCVeL9Y0-16">
          <mxGeometry relative="1" as="geometry" />
        </mxCell>
        <mxCell id="ENRvvky9fsEBMCVeL9Y0-10" style="edgeStyle=orthogonalEdgeStyle;rounded=0;orthogonalLoop=1;jettySize=auto;html=1;exitX=0.5;exitY=0;exitDx=0;exitDy=0;entryX=0.5;entryY=1;entryDx=0;entryDy=0;" edge="1" parent="-oJdppCjLApdtGuJOU42-1" source="ENRvvky9fsEBMCVeL9Y0-11" target="ENRvvky9fsEBMCVeL9Y0-44">
          <mxGeometry relative="1" as="geometry" />
        </mxCell>
        <mxCell id="ENRvvky9fsEBMCVeL9Y0-11" value="&lt;div&gt;Navbar&lt;/div&gt;" style="rounded=1;whiteSpace=wrap;html=1;fontSize=12;glass=0;strokeWidth=1;shadow=0;fillColor=#dae8fc;strokeColor=#000000;" vertex="1" parent="-oJdppCjLApdtGuJOU42-1">
          <mxGeometry x="369" y="28" width="120" height="40" as="geometry" />
        </mxCell>
        <mxCell id="ENRvvky9fsEBMCVeL9Y0-12" style="edgeStyle=orthogonalEdgeStyle;rounded=0;orthogonalLoop=1;jettySize=auto;html=1;exitX=1;exitY=0.5;exitDx=0;exitDy=0;entryX=0.5;entryY=1;entryDx=0;entryDy=0;endArrow=block;endFill=1;" edge="1" parent="-oJdppCjLApdtGuJOU42-1" source="ENRvvky9fsEBMCVeL9Y0-13" target="ENRvvky9fsEBMCVeL9Y0-28">
          <mxGeometry relative="1" as="geometry" />
        </mxCell>
        <mxCell id="ENRvvky9fsEBMCVeL9Y0-13" value="&lt;div&gt;*User*&lt;/div&gt;&lt;div&gt;Gallery page&lt;/div&gt;" style="rounded=1;whiteSpace=wrap;html=1;fontSize=12;glass=0;strokeWidth=1;shadow=0;fillColor=#dae8fc;strokeColor=#000000;" vertex="1" parent="-oJdppCjLApdtGuJOU42-1">
          <mxGeometry x="522" y="391" width="120" height="40" as="geometry" />
        </mxCell>
        <mxCell id="ENRvvky9fsEBMCVeL9Y0-14" style="edgeStyle=orthogonalEdgeStyle;rounded=0;orthogonalLoop=1;jettySize=auto;html=1;exitX=0.5;exitY=1;exitDx=0;exitDy=0;entryX=0.617;entryY=-0.033;entryDx=0;entryDy=0;endArrow=block;endFill=0;entryPerimeter=0;" edge="1" parent="-oJdppCjLApdtGuJOU42-1" source="ENRvvky9fsEBMCVeL9Y0-16" target="ENRvvky9fsEBMCVeL9Y0-29">
          <mxGeometry relative="1" as="geometry" />
        </mxCell>
        <mxCell id="ENRvvky9fsEBMCVeL9Y0-15" style="edgeStyle=orthogonalEdgeStyle;rounded=0;orthogonalLoop=1;jettySize=auto;html=1;exitX=1;exitY=0.5;exitDx=0;exitDy=0;entryX=1;entryY=0.5;entryDx=0;entryDy=0;endArrow=block;endFill=1;" edge="1" parent="-oJdppCjLApdtGuJOU42-1" source="ENRvvky9fsEBMCVeL9Y0-16" target="ENRvvky9fsEBMCVeL9Y0-28">
          <mxGeometry relative="1" as="geometry" />
        </mxCell>
        <mxCell id="ENRvvky9fsEBMCVeL9Y0-16" value="&lt;div&gt;*Own* &lt;br&gt;&lt;/div&gt;&lt;div&gt;Gallery page&lt;/div&gt;" style="rounded=1;whiteSpace=wrap;html=1;fontSize=12;glass=0;strokeWidth=1;shadow=0;fillColor=#dae8fc;strokeColor=#FF0000;" vertex="1" parent="-oJdppCjLApdtGuJOU42-1">
          <mxGeometry x="662" y="189" width="120" height="40" as="geometry" />
        </mxCell>
        <mxCell id="ENRvvky9fsEBMCVeL9Y0-17" style="edgeStyle=orthogonalEdgeStyle;rounded=0;orthogonalLoop=1;jettySize=auto;html=1;exitX=0.5;exitY=1;exitDx=0;exitDy=0;entryX=0.5;entryY=0;entryDx=0;entryDy=0;endArrow=block;endFill=0;" edge="1" parent="-oJdppCjLApdtGuJOU42-1" source="ENRvvky9fsEBMCVeL9Y0-36" target="ENRvvky9fsEBMCVeL9Y0-35">
          <mxGeometry relative="1" as="geometry" />
        </mxCell>
        <mxCell id="ENRvvky9fsEBMCVeL9Y0-18" style="edgeStyle=orthogonalEdgeStyle;rounded=0;orthogonalLoop=1;jettySize=auto;html=1;exitX=0;exitY=0.5;exitDx=0;exitDy=0;entryX=0.75;entryY=0;entryDx=0;entryDy=0;endArrow=block;endFill=1;" edge="1" parent="-oJdppCjLApdtGuJOU42-1" source="ENRvvky9fsEBMCVeL9Y0-36" target="ENRvvky9fsEBMCVeL9Y0-31">
          <mxGeometry relative="1" as="geometry">
            <mxPoint x="338" y="407" as="targetPoint" />
          </mxGeometry>
        </mxCell>
        <mxCell id="ENRvvky9fsEBMCVeL9Y0-19" style="edgeStyle=orthogonalEdgeStyle;rounded=0;orthogonalLoop=1;jettySize=auto;html=1;exitX=1;exitY=0.25;exitDx=0;exitDy=0;entryX=0.5;entryY=1;entryDx=0;entryDy=0;endArrow=block;endFill=1;" edge="1" parent="-oJdppCjLApdtGuJOU42-1" source="ENRvvky9fsEBMCVeL9Y0-32" target="ENRvvky9fsEBMCVeL9Y0-33">
          <mxGeometry relative="1" as="geometry">
            <mxPoint x="288" y="276" as="targetPoint" />
          </mxGeometry>
        </mxCell>
        <mxCell id="ENRvvky9fsEBMCVeL9Y0-20" style="edgeStyle=orthogonalEdgeStyle;rounded=0;orthogonalLoop=1;jettySize=auto;html=1;entryX=0.5;entryY=1;entryDx=0;entryDy=0;endArrow=block;endFill=1;exitX=0;exitY=0;exitDx=0;exitDy=0;" edge="1" parent="-oJdppCjLApdtGuJOU42-1" source="ENRvvky9fsEBMCVeL9Y0-32" target="ENRvvky9fsEBMCVeL9Y0-34">
          <mxGeometry relative="1" as="geometry">
            <mxPoint x="160" y="190" as="sourcePoint" />
            <mxPoint x="172" y="278" as="targetPoint" />
          </mxGeometry>
        </mxCell>
        <mxCell id="ENRvvky9fsEBMCVeL9Y0-21" style="edgeStyle=orthogonalEdgeStyle;rounded=0;orthogonalLoop=1;jettySize=auto;html=1;exitX=0.5;exitY=1;exitDx=0;exitDy=0;entryX=0.5;entryY=0;entryDx=0;entryDy=0;endArrow=block;endFill=0;" edge="1" parent="-oJdppCjLApdtGuJOU42-1" source="ENRvvky9fsEBMCVeL9Y0-30" target="ENRvvky9fsEBMCVeL9Y0-13">
          <mxGeometry relative="1" as="geometry" />
        </mxCell>
        <mxCell id="ENRvvky9fsEBMCVeL9Y0-22" style="edgeStyle=orthogonalEdgeStyle;rounded=0;orthogonalLoop=1;jettySize=auto;html=1;exitX=1;exitY=0.5;exitDx=0;exitDy=0;entryX=0.25;entryY=1;entryDx=0;entryDy=0;endArrow=block;endFill=1;" edge="1" parent="-oJdppCjLApdtGuJOU42-1" source="ENRvvky9fsEBMCVeL9Y0-30" target="ENRvvky9fsEBMCVeL9Y0-16">
          <mxGeometry relative="1" as="geometry" />
        </mxCell>
        <mxCell id="ENRvvky9fsEBMCVeL9Y0-23" style="edgeStyle=orthogonalEdgeStyle;rounded=0;orthogonalLoop=1;jettySize=auto;html=1;exitX=0.5;exitY=0;exitDx=0;exitDy=0;entryX=0.5;entryY=1;entryDx=0;entryDy=0;endArrow=block;endFill=0;" edge="1" parent="-oJdppCjLApdtGuJOU42-1" source="ENRvvky9fsEBMCVeL9Y0-28" target="ENRvvky9fsEBMCVeL9Y0-24">
          <mxGeometry relative="1" as="geometry" />
        </mxCell>
        <mxCell id="ENRvvky9fsEBMCVeL9Y0-24" value="&lt;div&gt;Gallery page&lt;/div&gt;&amp;nbsp;w full size image" style="rounded=1;whiteSpace=wrap;html=1;fontSize=12;glass=0;strokeWidth=1;shadow=0;fillColor=#dae8fc;strokeColor=#000000;" vertex="1" parent="-oJdppCjLApdtGuJOU42-1">
          <mxGeometry x="736" y="10" width="120" height="40" as="geometry" />
        </mxCell>
        <mxCell id="ENRvvky9fsEBMCVeL9Y0-25" value="input/output" style="shape=parallelogram;perimeter=parallelogramPerimeter;whiteSpace=wrap;html=1;fixedSize=1;" vertex="1" parent="-oJdppCjLApdtGuJOU42-1">
          <mxGeometry x="920" y="44" width="120" height="60" as="geometry" />
        </mxCell>
        <mxCell id="ENRvvky9fsEBMCVeL9Y0-26" value="React Component" style="rounded=1;whiteSpace=wrap;html=1;fillColor=#dae8fc;strokeColor=#000000;" vertex="1" parent="-oJdppCjLApdtGuJOU42-1">
          <mxGeometry x="920" y="-30" width="120" height="60" as="geometry" />
        </mxCell>
        <mxCell id="ENRvvky9fsEBMCVeL9Y0-27" value="Process/operation" style="rounded=0;whiteSpace=wrap;html=1;" vertex="1" parent="-oJdppCjLApdtGuJOU42-1">
          <mxGeometry x="920" y="120" width="120" height="60" as="geometry" />
        </mxCell>
        <mxCell id="ENRvvky9fsEBMCVeL9Y0-28" value="&lt;div&gt;Click on a picture&lt;/div&gt;" style="shape=parallelogram;perimeter=parallelogramPerimeter;whiteSpace=wrap;html=1;fixedSize=1;" vertex="1" parent="-oJdppCjLApdtGuJOU42-1">
          <mxGeometry x="736" y="94" width="120" height="60" as="geometry" />
        </mxCell>
        <mxCell id="ENRvvky9fsEBMCVeL9Y0-29" value="Set image privacy" style="shape=parallelogram;perimeter=parallelogramPerimeter;whiteSpace=wrap;html=1;fixedSize=1;strokeColor=#FF0000;" vertex="1" parent="-oJdppCjLApdtGuJOU42-1">
          <mxGeometry x="648" y="320" width="120" height="60" as="geometry" />
        </mxCell>
        <mxCell id="ENRvvky9fsEBMCVeL9Y0-30" value="Click on user" style="shape=parallelogram;perimeter=parallelogramPerimeter;whiteSpace=wrap;html=1;fixedSize=1;" vertex="1" parent="-oJdppCjLApdtGuJOU42-1">
          <mxGeometry x="522" y="267" width="120" height="60" as="geometry" />
        </mxCell>
        <mxCell id="ENRvvky9fsEBMCVeL9Y0-31" value="Save to DB" style="shape=parallelogram;perimeter=parallelogramPerimeter;whiteSpace=wrap;html=1;fixedSize=1;strokeColor=#FF0000;" vertex="1" parent="-oJdppCjLApdtGuJOU42-1">
          <mxGeometry x="222" y="381" width="120" height="60" as="geometry" />
        </mxCell>
        <mxCell id="ENRvvky9fsEBMCVeL9Y0-32" value="&lt;div&gt;User name&lt;/div&gt;&lt;div&gt;mpodal menu&lt;br&gt;&lt;/div&gt;" style="shape=parallelogram;perimeter=parallelogramPerimeter;whiteSpace=wrap;html=1;fixedSize=1;strokeColor=#FF0000;" vertex="1" parent="-oJdppCjLApdtGuJOU42-1">
          <mxGeometry x="602" y="-60" width="120" height="60" as="geometry" />
        </mxCell>
        <mxCell id="ENRvvky9fsEBMCVeL9Y0-33" value="Log out" style="shape=parallelogram;perimeter=parallelogramPerimeter;whiteSpace=wrap;html=1;fixedSize=1;strokeColor=#FF0000;" vertex="1" parent="-oJdppCjLApdtGuJOU42-1">
          <mxGeometry x="750" y="-131" width="120" height="60" as="geometry" />
        </mxCell>
        <mxCell id="ENRvvky9fsEBMCVeL9Y0-34" value="Delete account" style="shape=parallelogram;perimeter=parallelogramPerimeter;whiteSpace=wrap;html=1;fixedSize=1;strokeColor=#FF0000;" vertex="1" parent="-oJdppCjLApdtGuJOU42-1">
          <mxGeometry x="479" y="-131" width="120" height="60" as="geometry" />
        </mxCell>
        <mxCell id="ENRvvky9fsEBMCVeL9Y0-35" value="Download" style="shape=parallelogram;perimeter=parallelogramPerimeter;whiteSpace=wrap;html=1;fixedSize=1;" vertex="1" parent="-oJdppCjLApdtGuJOU42-1">
          <mxGeometry x="369" y="381" width="120" height="60" as="geometry" />
        </mxCell>
        <mxCell id="ENRvvky9fsEBMCVeL9Y0-36" value="Draw" style="shape=parallelogram;perimeter=parallelogramPerimeter;whiteSpace=wrap;html=1;fixedSize=1;" vertex="1" parent="-oJdppCjLApdtGuJOU42-1">
          <mxGeometry x="369" y="271" width="120" height="60" as="geometry" />
        </mxCell>
        <mxCell id="ENRvvky9fsEBMCVeL9Y0-42" style="edgeStyle=orthogonalEdgeStyle;rounded=0;orthogonalLoop=1;jettySize=auto;html=1;exitX=1;exitY=0.5;exitDx=0;exitDy=0;entryX=0;entryY=0.5;entryDx=0;entryDy=0;" edge="1" parent="-oJdppCjLApdtGuJOU42-1" source="ENRvvky9fsEBMCVeL9Y0-44" target="ENRvvky9fsEBMCVeL9Y0-32">
          <mxGeometry relative="1" as="geometry" />
        </mxCell>
        <mxCell id="ENRvvky9fsEBMCVeL9Y0-43" value="Yes" style="edgeLabel;html=1;align=center;verticalAlign=middle;resizable=0;points=[];" vertex="1" connectable="0" parent="ENRvvky9fsEBMCVeL9Y0-42">
          <mxGeometry x="-0.188" y="-1" relative="1" as="geometry">
            <mxPoint as="offset" />
          </mxGeometry>
        </mxCell>
        <mxCell id="ENRvvky9fsEBMCVeL9Y0-44" value="Logged in" style="rhombus;whiteSpace=wrap;html=1;shadow=0;fontFamily=Helvetica;fontSize=12;align=center;strokeWidth=1;spacing=6;spacingTop=-4;" vertex="1" parent="-oJdppCjLApdtGuJOU42-1">
          <mxGeometry x="379" y="-70" width="100" height="80" as="geometry" />
        </mxCell>
        <mxCell id="ENRvvky9fsEBMCVeL9Y0-45" value="Option/Choice" style="rhombus;whiteSpace=wrap;html=1;shadow=0;fontFamily=Helvetica;fontSize=12;align=center;strokeWidth=1;spacing=6;spacingTop=-4;" vertex="1" parent="-oJdppCjLApdtGuJOU42-1">
          <mxGeometry x="930" y="-120" width="100" height="80" as="geometry" />
        </mxCell>
        <mxCell id="ENRvvky9fsEBMCVeL9Y0-46" style="edgeStyle=orthogonalEdgeStyle;rounded=0;orthogonalLoop=1;jettySize=auto;html=1;exitX=1;exitY=0.5;exitDx=0;exitDy=0;entryX=0;entryY=0.5;entryDx=0;entryDy=0;endArrow=block;endFill=0;" edge="1" parent="-oJdppCjLApdtGuJOU42-1" source="ENRvvky9fsEBMCVeL9Y0-48" target="ENRvvky9fsEBMCVeL9Y0-11">
          <mxGeometry relative="1" as="geometry" />
        </mxCell>
        <mxCell id="ENRvvky9fsEBMCVeL9Y0-47" style="edgeStyle=orthogonalEdgeStyle;rounded=0;orthogonalLoop=1;jettySize=auto;html=1;exitX=1;exitY=0.5;exitDx=0;exitDy=0;entryX=0;entryY=0.5;entryDx=0;entryDy=0;endArrow=block;endFill=0;" edge="1" parent="-oJdppCjLApdtGuJOU42-1" source="ENRvvky9fsEBMCVeL9Y0-48" target="ENRvvky9fsEBMCVeL9Y0-2">
          <mxGeometry relative="1" as="geometry" />
        </mxCell>
        <mxCell id="ENRvvky9fsEBMCVeL9Y0-48" value="Landing page" style="ellipse;whiteSpace=wrap;html=1;strokeColor=#000000;fillColor=#FFFFFF;" vertex="1" parent="-oJdppCjLApdtGuJOU42-1">
          <mxGeometry x="140" y="84" width="120" height="80" as="geometry" />
        </mxCell>
        <mxCell id="ENRvvky9fsEBMCVeL9Y0-49" style="edgeStyle=orthogonalEdgeStyle;rounded=0;orthogonalLoop=1;jettySize=auto;html=1;entryX=0.75;entryY=0;entryDx=0;entryDy=0;endArrow=block;endFill=0;" edge="1" parent="-oJdppCjLApdtGuJOU42-1">
          <mxGeometry relative="1" as="geometry">
            <mxPoint x="940.5" y="220" as="sourcePoint" />
            <mxPoint x="1019.5" y="220" as="targetPoint" />
          </mxGeometry>
        </mxCell>
        <mxCell id="ENRvvky9fsEBMCVeL9Y0-50" value="Visitor" style="edgeLabel;html=1;align=center;verticalAlign=middle;resizable=0;points=[];" vertex="1" connectable="0" parent="ENRvvky9fsEBMCVeL9Y0-49">
          <mxGeometry x="-0.2785" y="-1" relative="1" as="geometry">
            <mxPoint x="1" y="-11" as="offset" />
          </mxGeometry>
        </mxCell>
        <mxCell id="ENRvvky9fsEBMCVeL9Y0-51" style="edgeStyle=orthogonalEdgeStyle;rounded=0;orthogonalLoop=1;jettySize=auto;html=1;entryX=0.75;entryY=0;entryDx=0;entryDy=0;endArrow=block;endFill=1;" edge="1" parent="-oJdppCjLApdtGuJOU42-1">
          <mxGeometry relative="1" as="geometry">
            <mxPoint x="940.5" y="250" as="sourcePoint" />
            <mxPoint x="1019.5" y="250" as="targetPoint" />
          </mxGeometry>
        </mxCell>
        <mxCell id="ENRvvky9fsEBMCVeL9Y0-52" value="User" style="edgeLabel;html=1;align=center;verticalAlign=middle;resizable=0;points=[];" vertex="1" connectable="0" parent="ENRvvky9fsEBMCVeL9Y0-51">
          <mxGeometry x="-0.2785" y="-1" relative="1" as="geometry">
            <mxPoint x="2" y="-11" as="offset" />
          </mxGeometry>
        </mxCell>
        <mxCell id="ENRvvky9fsEBMCVeL9Y0-53" value="Visitor only" style="rounded=0;whiteSpace=wrap;html=1;strokeColor=#00FF00;" vertex="1" parent="-oJdppCjLApdtGuJOU42-1">
          <mxGeometry x="920" y="345" width="120" height="60" as="geometry" />
        </mxCell>
        <mxCell id="ENRvvky9fsEBMCVeL9Y0-54" value="User only" style="rounded=0;whiteSpace=wrap;html=1;strokeColor=#FF0000;" vertex="1" parent="-oJdppCjLApdtGuJOU42-1">
          <mxGeometry x="920" y="270" width="120" height="60" as="geometry" />
        </mxCell>
      </root>
    </mxGraphModel>
  </diagram>
  <diagram id="beqJWR9a9UQeu2Omfmx5" name="Erthing visitor">
    <mxGraphModel dx="1102" dy="1763" grid="1" gridSize="10" guides="1" tooltips="1" connect="1" arrows="1" fold="1" page="1" pageScale="1" pageWidth="827" pageHeight="1169" math="0" shadow="0">
      <root>
        <mxCell id="oToBbHD5MO3SX1JOX5tv-0" />
        <mxCell id="oToBbHD5MO3SX1JOX5tv-1" parent="oToBbHD5MO3SX1JOX5tv-0" />
        <mxCell id="eu5OQ6e6EVKk6Ozr1f02-0" value="" style="edgeStyle=orthogonalEdgeStyle;rounded=0;orthogonalLoop=1;jettySize=auto;html=1;entryX=0.5;entryY=0;entryDx=0;entryDy=0;exitX=0.5;exitY=1;exitDx=0;exitDy=0;" edge="1" parent="oToBbHD5MO3SX1JOX5tv-1" source="eu5OQ6e6EVKk6Ozr1f02-11" target="eu5OQ6e6EVKk6Ozr1f02-5">
          <mxGeometry relative="1" as="geometry">
            <mxPoint x="333" y="60" as="sourcePoint" />
            <mxPoint x="283" y="90" as="targetPoint" />
          </mxGeometry>
        </mxCell>
        <mxCell id="eu5OQ6e6EVKk6Ozr1f02-1" style="edgeStyle=orthogonalEdgeStyle;rounded=0;orthogonalLoop=1;jettySize=auto;html=1;exitX=0.5;exitY=1;exitDx=0;exitDy=0;entryX=0.5;entryY=0;entryDx=0;entryDy=0;endArrow=block;endFill=0;" edge="1" parent="oToBbHD5MO3SX1JOX5tv-1" source="eu5OQ6e6EVKk6Ozr1f02-2" target="eu5OQ6e6EVKk6Ozr1f02-36">
          <mxGeometry relative="1" as="geometry" />
        </mxCell>
        <mxCell id="eu5OQ6e6EVKk6Ozr1f02-2" value="&lt;div&gt;Drawing Board&lt;/div&gt;" style="rounded=1;whiteSpace=wrap;html=1;fontSize=12;glass=0;strokeWidth=1;shadow=0;fillColor=#dae8fc;strokeColor=#000000;" vertex="1" parent="oToBbHD5MO3SX1JOX5tv-1">
          <mxGeometry x="369" y="207" width="120" height="40" as="geometry" />
        </mxCell>
        <mxCell id="eu5OQ6e6EVKk6Ozr1f02-3" style="edgeStyle=orthogonalEdgeStyle;rounded=0;orthogonalLoop=1;jettySize=auto;html=1;exitX=0.5;exitY=1;exitDx=0;exitDy=0;entryX=0.5;entryY=0;entryDx=0;entryDy=0;endArrow=block;endFill=0;" edge="1" parent="oToBbHD5MO3SX1JOX5tv-1" source="eu5OQ6e6EVKk6Ozr1f02-5" target="eu5OQ6e6EVKk6Ozr1f02-2">
          <mxGeometry relative="1" as="geometry" />
        </mxCell>
        <mxCell id="eu5OQ6e6EVKk6Ozr1f02-4" style="edgeStyle=orthogonalEdgeStyle;rounded=0;orthogonalLoop=1;jettySize=auto;html=1;exitX=1;exitY=0.5;exitDx=0;exitDy=0;entryX=0;entryY=0.5;entryDx=0;entryDy=0;" edge="1" parent="oToBbHD5MO3SX1JOX5tv-1" source="eu5OQ6e6EVKk6Ozr1f02-5" target="eu5OQ6e6EVKk6Ozr1f02-8">
          <mxGeometry relative="1" as="geometry">
            <mxPoint x="522" y="30" as="targetPoint" />
          </mxGeometry>
        </mxCell>
        <mxCell id="eu5OQ6e6EVKk6Ozr1f02-5" value="&lt;div&gt;Switch gallery/&lt;/div&gt;&lt;div&gt;drawing board&lt;/div&gt;" style="rhombus;whiteSpace=wrap;html=1;shadow=0;fontFamily=Helvetica;fontSize=12;align=center;strokeWidth=1;spacing=6;spacingTop=-4;" vertex="1" parent="oToBbHD5MO3SX1JOX5tv-1">
          <mxGeometry x="379" y="84" width="100" height="80" as="geometry" />
        </mxCell>
        <mxCell id="eu5OQ6e6EVKk6Ozr1f02-6" style="edgeStyle=orthogonalEdgeStyle;rounded=0;orthogonalLoop=1;jettySize=auto;html=1;exitX=0.5;exitY=1;exitDx=0;exitDy=0;entryX=0.5;entryY=0;entryDx=0;entryDy=0;endArrow=block;endFill=0;" edge="1" parent="oToBbHD5MO3SX1JOX5tv-1" source="eu5OQ6e6EVKk6Ozr1f02-8" target="eu5OQ6e6EVKk6Ozr1f02-30">
          <mxGeometry relative="1" as="geometry" />
        </mxCell>
        <mxCell id="eu5OQ6e6EVKk6Ozr1f02-7" style="edgeStyle=orthogonalEdgeStyle;rounded=0;orthogonalLoop=1;jettySize=auto;html=1;exitX=1;exitY=0.5;exitDx=0;exitDy=0;entryX=0;entryY=0.5;entryDx=0;entryDy=0;endArrow=block;endFill=0;" edge="1" parent="oToBbHD5MO3SX1JOX5tv-1" source="eu5OQ6e6EVKk6Ozr1f02-8" target="eu5OQ6e6EVKk6Ozr1f02-28">
          <mxGeometry relative="1" as="geometry" />
        </mxCell>
        <mxCell id="eu5OQ6e6EVKk6Ozr1f02-8" value="*Public*&lt;br&gt;&lt;div&gt;Gallery page&lt;/div&gt;" style="rounded=1;whiteSpace=wrap;html=1;fontSize=12;glass=0;strokeWidth=1;shadow=0;fillColor=#DAE8FC;" vertex="1" parent="oToBbHD5MO3SX1JOX5tv-1">
          <mxGeometry x="522" y="104" width="120" height="40" as="geometry" />
        </mxCell>
        <mxCell id="eu5OQ6e6EVKk6Ozr1f02-10" style="edgeStyle=orthogonalEdgeStyle;rounded=0;orthogonalLoop=1;jettySize=auto;html=1;exitX=0.5;exitY=0;exitDx=0;exitDy=0;entryX=0.5;entryY=1;entryDx=0;entryDy=0;" edge="1" parent="oToBbHD5MO3SX1JOX5tv-1" source="eu5OQ6e6EVKk6Ozr1f02-11" target="eu5OQ6e6EVKk6Ozr1f02-44">
          <mxGeometry relative="1" as="geometry" />
        </mxCell>
        <mxCell id="eu5OQ6e6EVKk6Ozr1f02-11" value="&lt;div&gt;Navbar&lt;/div&gt;" style="rounded=1;whiteSpace=wrap;html=1;fontSize=12;glass=0;strokeWidth=1;shadow=0;fillColor=#dae8fc;strokeColor=#000000;" vertex="1" parent="oToBbHD5MO3SX1JOX5tv-1">
          <mxGeometry x="369" y="28" width="120" height="40" as="geometry" />
        </mxCell>
        <mxCell id="eu5OQ6e6EVKk6Ozr1f02-12" style="edgeStyle=orthogonalEdgeStyle;rounded=0;orthogonalLoop=1;jettySize=auto;html=1;exitX=1;exitY=0.5;exitDx=0;exitDy=0;entryX=0.5;entryY=1;entryDx=0;entryDy=0;endArrow=block;endFill=1;" edge="1" parent="oToBbHD5MO3SX1JOX5tv-1" source="eu5OQ6e6EVKk6Ozr1f02-13" target="eu5OQ6e6EVKk6Ozr1f02-28">
          <mxGeometry relative="1" as="geometry" />
        </mxCell>
        <mxCell id="eu5OQ6e6EVKk6Ozr1f02-13" value="&lt;div&gt;*User*&lt;/div&gt;&lt;div&gt;Gallery page&lt;/div&gt;" style="rounded=1;whiteSpace=wrap;html=1;fontSize=12;glass=0;strokeWidth=1;shadow=0;fillColor=#dae8fc;strokeColor=#000000;" vertex="1" parent="oToBbHD5MO3SX1JOX5tv-1">
          <mxGeometry x="522" y="391" width="120" height="40" as="geometry" />
        </mxCell>
        <mxCell id="eu5OQ6e6EVKk6Ozr1f02-17" style="edgeStyle=orthogonalEdgeStyle;rounded=0;orthogonalLoop=1;jettySize=auto;html=1;exitX=0.5;exitY=1;exitDx=0;exitDy=0;entryX=0.5;entryY=0;entryDx=0;entryDy=0;endArrow=block;endFill=0;" edge="1" parent="oToBbHD5MO3SX1JOX5tv-1" source="eu5OQ6e6EVKk6Ozr1f02-36" target="eu5OQ6e6EVKk6Ozr1f02-35">
          <mxGeometry relative="1" as="geometry" />
        </mxCell>
        <mxCell id="eu5OQ6e6EVKk6Ozr1f02-21" style="edgeStyle=orthogonalEdgeStyle;rounded=0;orthogonalLoop=1;jettySize=auto;html=1;exitX=0.5;exitY=1;exitDx=0;exitDy=0;entryX=0.5;entryY=0;entryDx=0;entryDy=0;endArrow=block;endFill=0;" edge="1" parent="oToBbHD5MO3SX1JOX5tv-1" source="eu5OQ6e6EVKk6Ozr1f02-30" target="eu5OQ6e6EVKk6Ozr1f02-13">
          <mxGeometry relative="1" as="geometry" />
        </mxCell>
        <mxCell id="eu5OQ6e6EVKk6Ozr1f02-23" style="edgeStyle=orthogonalEdgeStyle;rounded=0;orthogonalLoop=1;jettySize=auto;html=1;exitX=0.5;exitY=0;exitDx=0;exitDy=0;entryX=0.5;entryY=1;entryDx=0;entryDy=0;endArrow=block;endFill=0;" edge="1" parent="oToBbHD5MO3SX1JOX5tv-1" source="eu5OQ6e6EVKk6Ozr1f02-28" target="eu5OQ6e6EVKk6Ozr1f02-24">
          <mxGeometry relative="1" as="geometry" />
        </mxCell>
        <mxCell id="eu5OQ6e6EVKk6Ozr1f02-24" value="&lt;div&gt;Gallery page&lt;/div&gt;&amp;nbsp;w full size image" style="rounded=1;whiteSpace=wrap;html=1;fontSize=12;glass=0;strokeWidth=1;shadow=0;fillColor=#dae8fc;strokeColor=#000000;" vertex="1" parent="oToBbHD5MO3SX1JOX5tv-1">
          <mxGeometry x="736" y="10" width="120" height="40" as="geometry" />
        </mxCell>
        <mxCell id="eu5OQ6e6EVKk6Ozr1f02-25" value="input/output" style="shape=parallelogram;perimeter=parallelogramPerimeter;whiteSpace=wrap;html=1;fixedSize=1;" vertex="1" parent="oToBbHD5MO3SX1JOX5tv-1">
          <mxGeometry x="920" y="44" width="120" height="60" as="geometry" />
        </mxCell>
        <mxCell id="eu5OQ6e6EVKk6Ozr1f02-26" value="React Component" style="rounded=1;whiteSpace=wrap;html=1;fillColor=#dae8fc;strokeColor=#000000;" vertex="1" parent="oToBbHD5MO3SX1JOX5tv-1">
          <mxGeometry x="920" y="-30" width="120" height="60" as="geometry" />
        </mxCell>
        <mxCell id="eu5OQ6e6EVKk6Ozr1f02-27" value="Process/operation" style="rounded=0;whiteSpace=wrap;html=1;" vertex="1" parent="oToBbHD5MO3SX1JOX5tv-1">
          <mxGeometry x="920" y="120" width="120" height="60" as="geometry" />
        </mxCell>
        <mxCell id="eu5OQ6e6EVKk6Ozr1f02-28" value="&lt;div&gt;Click on a picture&lt;/div&gt;" style="shape=parallelogram;perimeter=parallelogramPerimeter;whiteSpace=wrap;html=1;fixedSize=1;" vertex="1" parent="oToBbHD5MO3SX1JOX5tv-1">
          <mxGeometry x="736" y="94" width="120" height="60" as="geometry" />
        </mxCell>
        <mxCell id="eu5OQ6e6EVKk6Ozr1f02-30" value="Click on user" style="shape=parallelogram;perimeter=parallelogramPerimeter;whiteSpace=wrap;html=1;fixedSize=1;" vertex="1" parent="oToBbHD5MO3SX1JOX5tv-1">
          <mxGeometry x="522" y="267" width="120" height="60" as="geometry" />
        </mxCell>
        <mxCell id="eu5OQ6e6EVKk6Ozr1f02-35" value="Download" style="shape=parallelogram;perimeter=parallelogramPerimeter;whiteSpace=wrap;html=1;fixedSize=1;" vertex="1" parent="oToBbHD5MO3SX1JOX5tv-1">
          <mxGeometry x="369" y="381" width="120" height="60" as="geometry" />
        </mxCell>
        <mxCell id="eu5OQ6e6EVKk6Ozr1f02-36" value="Draw" style="shape=parallelogram;perimeter=parallelogramPerimeter;whiteSpace=wrap;html=1;fixedSize=1;" vertex="1" parent="oToBbHD5MO3SX1JOX5tv-1">
          <mxGeometry x="369" y="271" width="120" height="60" as="geometry" />
        </mxCell>
        <mxCell id="eu5OQ6e6EVKk6Ozr1f02-37" value="Sign up" style="shape=parallelogram;perimeter=parallelogramPerimeter;whiteSpace=wrap;html=1;fixedSize=1;strokeColor=#00FF00;" vertex="1" parent="oToBbHD5MO3SX1JOX5tv-1">
          <mxGeometry x="170" y="-131" width="120" height="60" as="geometry" />
        </mxCell>
        <mxCell id="eu5OQ6e6EVKk6Ozr1f02-38" value="&lt;div&gt;Log in&lt;/div&gt;" style="shape=parallelogram;perimeter=parallelogramPerimeter;whiteSpace=wrap;html=1;fixedSize=1;strokeColor=#00FF00;" vertex="1" parent="oToBbHD5MO3SX1JOX5tv-1">
          <mxGeometry x="294" y="-131" width="120" height="60" as="geometry" />
        </mxCell>
        <mxCell id="eu5OQ6e6EVKk6Ozr1f02-39" style="edgeStyle=orthogonalEdgeStyle;rounded=0;orthogonalLoop=1;jettySize=auto;html=1;exitX=0;exitY=0.5;exitDx=0;exitDy=0;entryX=0.5;entryY=1;entryDx=0;entryDy=0;endArrow=block;endFill=0;" edge="1" parent="oToBbHD5MO3SX1JOX5tv-1" source="eu5OQ6e6EVKk6Ozr1f02-44" target="eu5OQ6e6EVKk6Ozr1f02-38">
          <mxGeometry relative="1" as="geometry" />
        </mxCell>
        <mxCell id="eu5OQ6e6EVKk6Ozr1f02-40" style="edgeStyle=orthogonalEdgeStyle;rounded=0;orthogonalLoop=1;jettySize=auto;html=1;exitX=0;exitY=0.5;exitDx=0;exitDy=0;entryX=0.5;entryY=1;entryDx=0;entryDy=0;endArrow=block;endFill=0;" edge="1" parent="oToBbHD5MO3SX1JOX5tv-1" source="eu5OQ6e6EVKk6Ozr1f02-44" target="eu5OQ6e6EVKk6Ozr1f02-37">
          <mxGeometry relative="1" as="geometry" />
        </mxCell>
        <mxCell id="eu5OQ6e6EVKk6Ozr1f02-41" value="No" style="edgeLabel;html=1;align=center;verticalAlign=middle;resizable=0;points=[];" vertex="1" connectable="0" parent="eu5OQ6e6EVKk6Ozr1f02-40">
          <mxGeometry x="-0.7989" y="-1" relative="1" as="geometry">
            <mxPoint as="offset" />
          </mxGeometry>
        </mxCell>
        <mxCell id="eu5OQ6e6EVKk6Ozr1f02-44" value="Logged in" style="rhombus;whiteSpace=wrap;html=1;shadow=0;fontFamily=Helvetica;fontSize=12;align=center;strokeWidth=1;spacing=6;spacingTop=-4;" vertex="1" parent="oToBbHD5MO3SX1JOX5tv-1">
          <mxGeometry x="379" y="-70" width="100" height="80" as="geometry" />
        </mxCell>
        <mxCell id="eu5OQ6e6EVKk6Ozr1f02-45" value="Option/Choice" style="rhombus;whiteSpace=wrap;html=1;shadow=0;fontFamily=Helvetica;fontSize=12;align=center;strokeWidth=1;spacing=6;spacingTop=-4;" vertex="1" parent="oToBbHD5MO3SX1JOX5tv-1">
          <mxGeometry x="930" y="-120" width="100" height="80" as="geometry" />
        </mxCell>
        <mxCell id="eu5OQ6e6EVKk6Ozr1f02-46" style="edgeStyle=orthogonalEdgeStyle;rounded=0;orthogonalLoop=1;jettySize=auto;html=1;exitX=1;exitY=0.5;exitDx=0;exitDy=0;entryX=0;entryY=0.5;entryDx=0;entryDy=0;endArrow=block;endFill=0;" edge="1" parent="oToBbHD5MO3SX1JOX5tv-1" source="eu5OQ6e6EVKk6Ozr1f02-48" target="eu5OQ6e6EVKk6Ozr1f02-11">
          <mxGeometry relative="1" as="geometry" />
        </mxCell>
        <mxCell id="eu5OQ6e6EVKk6Ozr1f02-47" style="edgeStyle=orthogonalEdgeStyle;rounded=0;orthogonalLoop=1;jettySize=auto;html=1;exitX=1;exitY=0.5;exitDx=0;exitDy=0;entryX=0;entryY=0.5;entryDx=0;entryDy=0;endArrow=block;endFill=0;" edge="1" parent="oToBbHD5MO3SX1JOX5tv-1" source="eu5OQ6e6EVKk6Ozr1f02-48" target="eu5OQ6e6EVKk6Ozr1f02-2">
          <mxGeometry relative="1" as="geometry" />
        </mxCell>
        <mxCell id="eu5OQ6e6EVKk6Ozr1f02-48" value="Landing page" style="ellipse;whiteSpace=wrap;html=1;strokeColor=#000000;fillColor=#FFFFFF;" vertex="1" parent="oToBbHD5MO3SX1JOX5tv-1">
          <mxGeometry x="140" y="84" width="120" height="80" as="geometry" />
        </mxCell>
        <mxCell id="eu5OQ6e6EVKk6Ozr1f02-49" style="edgeStyle=orthogonalEdgeStyle;rounded=0;orthogonalLoop=1;jettySize=auto;html=1;entryX=0.75;entryY=0;entryDx=0;entryDy=0;endArrow=block;endFill=0;" edge="1" parent="oToBbHD5MO3SX1JOX5tv-1">
          <mxGeometry relative="1" as="geometry">
            <mxPoint x="940.5" y="220" as="sourcePoint" />
            <mxPoint x="1019.5" y="220" as="targetPoint" />
          </mxGeometry>
        </mxCell>
        <mxCell id="eu5OQ6e6EVKk6Ozr1f02-50" value="Visitor" style="edgeLabel;html=1;align=center;verticalAlign=middle;resizable=0;points=[];" vertex="1" connectable="0" parent="eu5OQ6e6EVKk6Ozr1f02-49">
          <mxGeometry x="-0.2785" y="-1" relative="1" as="geometry">
            <mxPoint x="1" y="-11" as="offset" />
          </mxGeometry>
        </mxCell>
        <mxCell id="eu5OQ6e6EVKk6Ozr1f02-51" style="edgeStyle=orthogonalEdgeStyle;rounded=0;orthogonalLoop=1;jettySize=auto;html=1;entryX=0.75;entryY=0;entryDx=0;entryDy=0;endArrow=block;endFill=1;" edge="1" parent="oToBbHD5MO3SX1JOX5tv-1">
          <mxGeometry relative="1" as="geometry">
            <mxPoint x="940.5" y="250" as="sourcePoint" />
            <mxPoint x="1019.5" y="250" as="targetPoint" />
          </mxGeometry>
        </mxCell>
        <mxCell id="eu5OQ6e6EVKk6Ozr1f02-52" value="User" style="edgeLabel;html=1;align=center;verticalAlign=middle;resizable=0;points=[];" vertex="1" connectable="0" parent="eu5OQ6e6EVKk6Ozr1f02-51">
          <mxGeometry x="-0.2785" y="-1" relative="1" as="geometry">
            <mxPoint x="2" y="-11" as="offset" />
          </mxGeometry>
        </mxCell>
        <mxCell id="eu5OQ6e6EVKk6Ozr1f02-53" value="Visitor only" style="rounded=0;whiteSpace=wrap;html=1;strokeColor=#00FF00;" vertex="1" parent="oToBbHD5MO3SX1JOX5tv-1">
          <mxGeometry x="920" y="345" width="120" height="60" as="geometry" />
        </mxCell>
        <mxCell id="eu5OQ6e6EVKk6Ozr1f02-54" value="User only" style="rounded=0;whiteSpace=wrap;html=1;strokeColor=#FF0000;" vertex="1" parent="oToBbHD5MO3SX1JOX5tv-1">
          <mxGeometry x="920" y="270" width="120" height="60" as="geometry" />
        </mxCell>
      </root>
    </mxGraphModel>
  </diagram>
  <diagram id="3USjLJZGnBrA6fnZLWSC" name="DB">
    <mxGraphModel dx="1102" dy="1763" grid="1" gridSize="10" guides="1" tooltips="1" connect="1" arrows="1" fold="1" page="1" pageScale="1" pageWidth="827" pageHeight="1169" math="0" shadow="0">
      <root>
        <mxCell id="uOhC4vjeW_qJQav9Dk9j-0" />
        <mxCell id="uOhC4vjeW_qJQav9Dk9j-1" parent="uOhC4vjeW_qJQav9Dk9j-0" />
        <mxCell id="G-tmLV2_cOOlmODANc7p-0" value="" style="edgeStyle=orthogonalEdgeStyle;rounded=0;orthogonalLoop=1;jettySize=auto;html=1;entryX=0.5;entryY=0;entryDx=0;entryDy=0;exitX=0.5;exitY=1;exitDx=0;exitDy=0;" edge="1" parent="uOhC4vjeW_qJQav9Dk9j-1" source="G-tmLV2_cOOlmODANc7p-11" target="G-tmLV2_cOOlmODANc7p-5">
          <mxGeometry relative="1" as="geometry">
            <mxPoint x="333" y="60" as="sourcePoint" />
            <mxPoint x="283" y="90" as="targetPoint" />
          </mxGeometry>
        </mxCell>
        <mxCell id="G-tmLV2_cOOlmODANc7p-1" style="edgeStyle=orthogonalEdgeStyle;rounded=0;orthogonalLoop=1;jettySize=auto;html=1;exitX=0.5;exitY=1;exitDx=0;exitDy=0;entryX=0.5;entryY=0;entryDx=0;entryDy=0;endArrow=block;endFill=0;" edge="1" parent="uOhC4vjeW_qJQav9Dk9j-1" source="G-tmLV2_cOOlmODANc7p-2" target="G-tmLV2_cOOlmODANc7p-36">
          <mxGeometry relative="1" as="geometry" />
        </mxCell>
        <mxCell id="G-tmLV2_cOOlmODANc7p-2" value="&lt;div&gt;Drawing Board&lt;/div&gt;" style="rounded=1;whiteSpace=wrap;html=1;fontSize=12;glass=0;strokeWidth=1;shadow=0;fillColor=#dae8fc;strokeColor=#000000;" vertex="1" parent="uOhC4vjeW_qJQav9Dk9j-1">
          <mxGeometry x="369" y="207" width="120" height="40" as="geometry" />
        </mxCell>
        <mxCell id="G-tmLV2_cOOlmODANc7p-3" style="edgeStyle=orthogonalEdgeStyle;rounded=0;orthogonalLoop=1;jettySize=auto;html=1;exitX=0.5;exitY=1;exitDx=0;exitDy=0;entryX=0.5;entryY=0;entryDx=0;entryDy=0;endArrow=block;endFill=0;" edge="1" parent="uOhC4vjeW_qJQav9Dk9j-1" source="G-tmLV2_cOOlmODANc7p-5" target="G-tmLV2_cOOlmODANc7p-2">
          <mxGeometry relative="1" as="geometry" />
        </mxCell>
        <mxCell id="G-tmLV2_cOOlmODANc7p-4" style="edgeStyle=orthogonalEdgeStyle;rounded=0;orthogonalLoop=1;jettySize=auto;html=1;exitX=1;exitY=0.5;exitDx=0;exitDy=0;entryX=0;entryY=0.5;entryDx=0;entryDy=0;" edge="1" parent="uOhC4vjeW_qJQav9Dk9j-1" source="G-tmLV2_cOOlmODANc7p-5" target="G-tmLV2_cOOlmODANc7p-8">
          <mxGeometry relative="1" as="geometry">
            <mxPoint x="522" y="30" as="targetPoint" />
          </mxGeometry>
        </mxCell>
        <mxCell id="G-tmLV2_cOOlmODANc7p-5" value="&lt;div&gt;Switch gallery/&lt;/div&gt;&lt;div&gt;drawing board&lt;/div&gt;" style="rhombus;whiteSpace=wrap;html=1;shadow=0;fontFamily=Helvetica;fontSize=12;align=center;strokeWidth=1;spacing=6;spacingTop=-4;" vertex="1" parent="uOhC4vjeW_qJQav9Dk9j-1">
          <mxGeometry x="379" y="84" width="100" height="80" as="geometry" />
        </mxCell>
        <mxCell id="G-tmLV2_cOOlmODANc7p-6" style="edgeStyle=orthogonalEdgeStyle;rounded=0;orthogonalLoop=1;jettySize=auto;html=1;exitX=0.5;exitY=1;exitDx=0;exitDy=0;entryX=0.5;entryY=0;entryDx=0;entryDy=0;endArrow=block;endFill=0;" edge="1" parent="uOhC4vjeW_qJQav9Dk9j-1" source="G-tmLV2_cOOlmODANc7p-8" target="G-tmLV2_cOOlmODANc7p-30">
          <mxGeometry relative="1" as="geometry" />
        </mxCell>
        <mxCell id="G-tmLV2_cOOlmODANc7p-7" style="edgeStyle=orthogonalEdgeStyle;rounded=0;orthogonalLoop=1;jettySize=auto;html=1;exitX=1;exitY=0.5;exitDx=0;exitDy=0;entryX=0;entryY=0.5;entryDx=0;entryDy=0;endArrow=block;endFill=0;" edge="1" parent="uOhC4vjeW_qJQav9Dk9j-1" source="G-tmLV2_cOOlmODANc7p-8" target="G-tmLV2_cOOlmODANc7p-28">
          <mxGeometry relative="1" as="geometry" />
        </mxCell>
        <mxCell id="G-tmLV2_cOOlmODANc7p-8" value="*Public*&lt;br&gt;&lt;div&gt;Gallery page&lt;/div&gt;" style="rounded=1;whiteSpace=wrap;html=1;fontSize=12;glass=0;strokeWidth=1;shadow=0;fillColor=#DAE8FC;" vertex="1" parent="uOhC4vjeW_qJQav9Dk9j-1">
          <mxGeometry x="522" y="104" width="120" height="40" as="geometry" />
        </mxCell>
        <mxCell id="G-tmLV2_cOOlmODANc7p-9" style="edgeStyle=orthogonalEdgeStyle;rounded=0;orthogonalLoop=1;jettySize=auto;html=1;exitX=0.75;exitY=1;exitDx=0;exitDy=0;entryX=0.25;entryY=0;entryDx=0;entryDy=0;endArrow=block;endFill=1;" edge="1" parent="uOhC4vjeW_qJQav9Dk9j-1" source="G-tmLV2_cOOlmODANc7p-32" target="G-tmLV2_cOOlmODANc7p-16">
          <mxGeometry relative="1" as="geometry" />
        </mxCell>
        <mxCell id="G-tmLV2_cOOlmODANc7p-10" style="edgeStyle=orthogonalEdgeStyle;rounded=0;orthogonalLoop=1;jettySize=auto;html=1;exitX=0.5;exitY=0;exitDx=0;exitDy=0;entryX=0.5;entryY=1;entryDx=0;entryDy=0;" edge="1" parent="uOhC4vjeW_qJQav9Dk9j-1" source="G-tmLV2_cOOlmODANc7p-11" target="G-tmLV2_cOOlmODANc7p-44">
          <mxGeometry relative="1" as="geometry" />
        </mxCell>
        <mxCell id="G-tmLV2_cOOlmODANc7p-11" value="&lt;div&gt;Navbar&lt;/div&gt;" style="rounded=1;whiteSpace=wrap;html=1;fontSize=12;glass=0;strokeWidth=1;shadow=0;fillColor=#dae8fc;strokeColor=#000000;" vertex="1" parent="uOhC4vjeW_qJQav9Dk9j-1">
          <mxGeometry x="369" y="28" width="120" height="40" as="geometry" />
        </mxCell>
        <mxCell id="G-tmLV2_cOOlmODANc7p-12" style="edgeStyle=orthogonalEdgeStyle;rounded=0;orthogonalLoop=1;jettySize=auto;html=1;exitX=1;exitY=0.5;exitDx=0;exitDy=0;entryX=0.5;entryY=1;entryDx=0;entryDy=0;endArrow=block;endFill=1;" edge="1" parent="uOhC4vjeW_qJQav9Dk9j-1" source="G-tmLV2_cOOlmODANc7p-13" target="G-tmLV2_cOOlmODANc7p-28">
          <mxGeometry relative="1" as="geometry" />
        </mxCell>
        <mxCell id="G-tmLV2_cOOlmODANc7p-13" value="&lt;div&gt;*User*&lt;/div&gt;&lt;div&gt;Gallery page&lt;/div&gt;" style="rounded=1;whiteSpace=wrap;html=1;fontSize=12;glass=0;strokeWidth=1;shadow=0;fillColor=#dae8fc;strokeColor=#000000;" vertex="1" parent="uOhC4vjeW_qJQav9Dk9j-1">
          <mxGeometry x="522" y="391" width="120" height="40" as="geometry" />
        </mxCell>
        <mxCell id="G-tmLV2_cOOlmODANc7p-14" style="edgeStyle=orthogonalEdgeStyle;rounded=0;orthogonalLoop=1;jettySize=auto;html=1;exitX=0.5;exitY=1;exitDx=0;exitDy=0;entryX=0.617;entryY=-0.033;entryDx=0;entryDy=0;endArrow=block;endFill=0;entryPerimeter=0;" edge="1" parent="uOhC4vjeW_qJQav9Dk9j-1" source="G-tmLV2_cOOlmODANc7p-16" target="G-tmLV2_cOOlmODANc7p-29">
          <mxGeometry relative="1" as="geometry" />
        </mxCell>
        <mxCell id="G-tmLV2_cOOlmODANc7p-15" style="edgeStyle=orthogonalEdgeStyle;rounded=0;orthogonalLoop=1;jettySize=auto;html=1;exitX=1;exitY=0.5;exitDx=0;exitDy=0;entryX=1;entryY=0.5;entryDx=0;entryDy=0;endArrow=block;endFill=1;" edge="1" parent="uOhC4vjeW_qJQav9Dk9j-1" source="G-tmLV2_cOOlmODANc7p-16" target="G-tmLV2_cOOlmODANc7p-28">
          <mxGeometry relative="1" as="geometry" />
        </mxCell>
        <mxCell id="G-tmLV2_cOOlmODANc7p-16" value="&lt;div&gt;*Own* &lt;br&gt;&lt;/div&gt;&lt;div&gt;Gallery page&lt;/div&gt;" style="rounded=1;whiteSpace=wrap;html=1;fontSize=12;glass=0;strokeWidth=1;shadow=0;fillColor=#dae8fc;strokeColor=#FF0000;" vertex="1" parent="uOhC4vjeW_qJQav9Dk9j-1">
          <mxGeometry x="662" y="189" width="120" height="40" as="geometry" />
        </mxCell>
        <mxCell id="G-tmLV2_cOOlmODANc7p-17" style="edgeStyle=orthogonalEdgeStyle;rounded=0;orthogonalLoop=1;jettySize=auto;html=1;exitX=0.5;exitY=1;exitDx=0;exitDy=0;entryX=0.5;entryY=0;entryDx=0;entryDy=0;endArrow=block;endFill=0;" edge="1" parent="uOhC4vjeW_qJQav9Dk9j-1" source="G-tmLV2_cOOlmODANc7p-36" target="G-tmLV2_cOOlmODANc7p-35">
          <mxGeometry relative="1" as="geometry" />
        </mxCell>
        <mxCell id="G-tmLV2_cOOlmODANc7p-18" style="edgeStyle=orthogonalEdgeStyle;rounded=0;orthogonalLoop=1;jettySize=auto;html=1;exitX=0;exitY=0.5;exitDx=0;exitDy=0;entryX=0.75;entryY=0;entryDx=0;entryDy=0;endArrow=block;endFill=1;" edge="1" parent="uOhC4vjeW_qJQav9Dk9j-1" source="G-tmLV2_cOOlmODANc7p-36" target="G-tmLV2_cOOlmODANc7p-31">
          <mxGeometry relative="1" as="geometry">
            <mxPoint x="338" y="407" as="targetPoint" />
          </mxGeometry>
        </mxCell>
        <mxCell id="G-tmLV2_cOOlmODANc7p-19" style="edgeStyle=orthogonalEdgeStyle;rounded=0;orthogonalLoop=1;jettySize=auto;html=1;exitX=1;exitY=0.25;exitDx=0;exitDy=0;entryX=0.5;entryY=1;entryDx=0;entryDy=0;endArrow=block;endFill=1;" edge="1" parent="uOhC4vjeW_qJQav9Dk9j-1" source="G-tmLV2_cOOlmODANc7p-32" target="G-tmLV2_cOOlmODANc7p-33">
          <mxGeometry relative="1" as="geometry">
            <mxPoint x="288" y="276" as="targetPoint" />
          </mxGeometry>
        </mxCell>
        <mxCell id="G-tmLV2_cOOlmODANc7p-20" style="edgeStyle=orthogonalEdgeStyle;rounded=0;orthogonalLoop=1;jettySize=auto;html=1;entryX=0.5;entryY=1;entryDx=0;entryDy=0;endArrow=block;endFill=1;exitX=0;exitY=0;exitDx=0;exitDy=0;" edge="1" parent="uOhC4vjeW_qJQav9Dk9j-1" source="G-tmLV2_cOOlmODANc7p-32" target="G-tmLV2_cOOlmODANc7p-34">
          <mxGeometry relative="1" as="geometry">
            <mxPoint x="160" y="190" as="sourcePoint" />
            <mxPoint x="172" y="278" as="targetPoint" />
          </mxGeometry>
        </mxCell>
        <mxCell id="G-tmLV2_cOOlmODANc7p-21" style="edgeStyle=orthogonalEdgeStyle;rounded=0;orthogonalLoop=1;jettySize=auto;html=1;exitX=0.5;exitY=1;exitDx=0;exitDy=0;entryX=0.5;entryY=0;entryDx=0;entryDy=0;endArrow=block;endFill=0;" edge="1" parent="uOhC4vjeW_qJQav9Dk9j-1" source="G-tmLV2_cOOlmODANc7p-30" target="G-tmLV2_cOOlmODANc7p-13">
          <mxGeometry relative="1" as="geometry" />
        </mxCell>
        <mxCell id="G-tmLV2_cOOlmODANc7p-22" style="edgeStyle=orthogonalEdgeStyle;rounded=0;orthogonalLoop=1;jettySize=auto;html=1;exitX=1;exitY=0.5;exitDx=0;exitDy=0;entryX=0.25;entryY=1;entryDx=0;entryDy=0;endArrow=block;endFill=1;" edge="1" parent="uOhC4vjeW_qJQav9Dk9j-1" source="G-tmLV2_cOOlmODANc7p-30" target="G-tmLV2_cOOlmODANc7p-16">
          <mxGeometry relative="1" as="geometry" />
        </mxCell>
        <mxCell id="G-tmLV2_cOOlmODANc7p-23" style="edgeStyle=orthogonalEdgeStyle;rounded=0;orthogonalLoop=1;jettySize=auto;html=1;exitX=0.5;exitY=0;exitDx=0;exitDy=0;entryX=0.5;entryY=1;entryDx=0;entryDy=0;endArrow=block;endFill=0;" edge="1" parent="uOhC4vjeW_qJQav9Dk9j-1" source="G-tmLV2_cOOlmODANc7p-28" target="G-tmLV2_cOOlmODANc7p-24">
          <mxGeometry relative="1" as="geometry" />
        </mxCell>
        <mxCell id="G-tmLV2_cOOlmODANc7p-24" value="&lt;div&gt;Gallery page&lt;/div&gt;&amp;nbsp;w full size image" style="rounded=1;whiteSpace=wrap;html=1;fontSize=12;glass=0;strokeWidth=1;shadow=0;fillColor=#dae8fc;strokeColor=#000000;" vertex="1" parent="uOhC4vjeW_qJQav9Dk9j-1">
          <mxGeometry x="736" y="10" width="120" height="40" as="geometry" />
        </mxCell>
        <mxCell id="G-tmLV2_cOOlmODANc7p-25" value="input/output" style="shape=parallelogram;perimeter=parallelogramPerimeter;whiteSpace=wrap;html=1;fixedSize=1;" vertex="1" parent="uOhC4vjeW_qJQav9Dk9j-1">
          <mxGeometry x="920" y="44" width="120" height="60" as="geometry" />
        </mxCell>
        <mxCell id="G-tmLV2_cOOlmODANc7p-26" value="React Component" style="rounded=1;whiteSpace=wrap;html=1;fillColor=#dae8fc;strokeColor=#000000;" vertex="1" parent="uOhC4vjeW_qJQav9Dk9j-1">
          <mxGeometry x="920" y="-30" width="120" height="60" as="geometry" />
        </mxCell>
        <mxCell id="G-tmLV2_cOOlmODANc7p-27" value="Process/operation" style="rounded=0;whiteSpace=wrap;html=1;" vertex="1" parent="uOhC4vjeW_qJQav9Dk9j-1">
          <mxGeometry x="920" y="120" width="120" height="60" as="geometry" />
        </mxCell>
        <mxCell id="G-tmLV2_cOOlmODANc7p-28" value="&lt;div&gt;Click on a picture&lt;/div&gt;" style="shape=parallelogram;perimeter=parallelogramPerimeter;whiteSpace=wrap;html=1;fixedSize=1;" vertex="1" parent="uOhC4vjeW_qJQav9Dk9j-1">
          <mxGeometry x="736" y="94" width="120" height="60" as="geometry" />
        </mxCell>
        <mxCell id="G-tmLV2_cOOlmODANc7p-29" value="Set image privacy" style="shape=parallelogram;perimeter=parallelogramPerimeter;whiteSpace=wrap;html=1;fixedSize=1;strokeColor=#FF0000;" vertex="1" parent="uOhC4vjeW_qJQav9Dk9j-1">
          <mxGeometry x="648" y="320" width="120" height="60" as="geometry" />
        </mxCell>
        <mxCell id="G-tmLV2_cOOlmODANc7p-30" value="Click on user" style="shape=parallelogram;perimeter=parallelogramPerimeter;whiteSpace=wrap;html=1;fixedSize=1;" vertex="1" parent="uOhC4vjeW_qJQav9Dk9j-1">
          <mxGeometry x="522" y="267" width="120" height="60" as="geometry" />
        </mxCell>
        <mxCell id="G-tmLV2_cOOlmODANc7p-31" value="Save to DB" style="shape=parallelogram;perimeter=parallelogramPerimeter;whiteSpace=wrap;html=1;fixedSize=1;strokeColor=#FF0000;" vertex="1" parent="uOhC4vjeW_qJQav9Dk9j-1">
          <mxGeometry x="222" y="381" width="120" height="60" as="geometry" />
        </mxCell>
        <mxCell id="G-tmLV2_cOOlmODANc7p-32" value="&lt;div&gt;User name&lt;/div&gt;&lt;div&gt;mpodal menu&lt;br&gt;&lt;/div&gt;" style="shape=parallelogram;perimeter=parallelogramPerimeter;whiteSpace=wrap;html=1;fixedSize=1;strokeColor=#FF0000;" vertex="1" parent="uOhC4vjeW_qJQav9Dk9j-1">
          <mxGeometry x="602" y="-60" width="120" height="60" as="geometry" />
        </mxCell>
        <mxCell id="G-tmLV2_cOOlmODANc7p-33" value="Log out" style="shape=parallelogram;perimeter=parallelogramPerimeter;whiteSpace=wrap;html=1;fixedSize=1;strokeColor=#FF0000;" vertex="1" parent="uOhC4vjeW_qJQav9Dk9j-1">
          <mxGeometry x="750" y="-131" width="120" height="60" as="geometry" />
        </mxCell>
        <mxCell id="G-tmLV2_cOOlmODANc7p-34" value="Delete account" style="shape=parallelogram;perimeter=parallelogramPerimeter;whiteSpace=wrap;html=1;fixedSize=1;strokeColor=#FF0000;" vertex="1" parent="uOhC4vjeW_qJQav9Dk9j-1">
          <mxGeometry x="479" y="-131" width="120" height="60" as="geometry" />
        </mxCell>
        <mxCell id="G-tmLV2_cOOlmODANc7p-35" value="Download" style="shape=parallelogram;perimeter=parallelogramPerimeter;whiteSpace=wrap;html=1;fixedSize=1;" vertex="1" parent="uOhC4vjeW_qJQav9Dk9j-1">
          <mxGeometry x="369" y="381" width="120" height="60" as="geometry" />
        </mxCell>
        <mxCell id="G-tmLV2_cOOlmODANc7p-36" value="Draw" style="shape=parallelogram;perimeter=parallelogramPerimeter;whiteSpace=wrap;html=1;fixedSize=1;" vertex="1" parent="uOhC4vjeW_qJQav9Dk9j-1">
          <mxGeometry x="369" y="271" width="120" height="60" as="geometry" />
        </mxCell>
        <mxCell id="G-tmLV2_cOOlmODANc7p-37" value="Sign up" style="shape=parallelogram;perimeter=parallelogramPerimeter;whiteSpace=wrap;html=1;fixedSize=1;strokeColor=#00FF00;" vertex="1" parent="uOhC4vjeW_qJQav9Dk9j-1">
          <mxGeometry x="170" y="-131" width="120" height="60" as="geometry" />
        </mxCell>
        <mxCell id="G-tmLV2_cOOlmODANc7p-38" value="&lt;div&gt;Log in&lt;/div&gt;" style="shape=parallelogram;perimeter=parallelogramPerimeter;whiteSpace=wrap;html=1;fixedSize=1;strokeColor=#00FF00;" vertex="1" parent="uOhC4vjeW_qJQav9Dk9j-1">
          <mxGeometry x="294" y="-131" width="120" height="60" as="geometry" />
        </mxCell>
        <mxCell id="G-tmLV2_cOOlmODANc7p-39" style="edgeStyle=orthogonalEdgeStyle;rounded=0;orthogonalLoop=1;jettySize=auto;html=1;exitX=0;exitY=0.5;exitDx=0;exitDy=0;entryX=0.5;entryY=1;entryDx=0;entryDy=0;endArrow=block;endFill=0;" edge="1" parent="uOhC4vjeW_qJQav9Dk9j-1" source="G-tmLV2_cOOlmODANc7p-44" target="G-tmLV2_cOOlmODANc7p-38">
          <mxGeometry relative="1" as="geometry" />
        </mxCell>
        <mxCell id="G-tmLV2_cOOlmODANc7p-40" style="edgeStyle=orthogonalEdgeStyle;rounded=0;orthogonalLoop=1;jettySize=auto;html=1;exitX=0;exitY=0.5;exitDx=0;exitDy=0;entryX=0.5;entryY=1;entryDx=0;entryDy=0;endArrow=block;endFill=0;" edge="1" parent="uOhC4vjeW_qJQav9Dk9j-1" source="G-tmLV2_cOOlmODANc7p-44" target="G-tmLV2_cOOlmODANc7p-37">
          <mxGeometry relative="1" as="geometry" />
        </mxCell>
        <mxCell id="G-tmLV2_cOOlmODANc7p-41" value="No" style="edgeLabel;html=1;align=center;verticalAlign=middle;resizable=0;points=[];" vertex="1" connectable="0" parent="G-tmLV2_cOOlmODANc7p-40">
          <mxGeometry x="-0.7989" y="-1" relative="1" as="geometry">
            <mxPoint as="offset" />
          </mxGeometry>
        </mxCell>
        <mxCell id="G-tmLV2_cOOlmODANc7p-42" style="edgeStyle=orthogonalEdgeStyle;rounded=0;orthogonalLoop=1;jettySize=auto;html=1;exitX=1;exitY=0.5;exitDx=0;exitDy=0;entryX=0;entryY=0.5;entryDx=0;entryDy=0;" edge="1" parent="uOhC4vjeW_qJQav9Dk9j-1" source="G-tmLV2_cOOlmODANc7p-44" target="G-tmLV2_cOOlmODANc7p-32">
          <mxGeometry relative="1" as="geometry" />
        </mxCell>
        <mxCell id="G-tmLV2_cOOlmODANc7p-43" value="Yes" style="edgeLabel;html=1;align=center;verticalAlign=middle;resizable=0;points=[];" vertex="1" connectable="0" parent="G-tmLV2_cOOlmODANc7p-42">
          <mxGeometry x="-0.188" y="-1" relative="1" as="geometry">
            <mxPoint as="offset" />
          </mxGeometry>
        </mxCell>
        <mxCell id="G-tmLV2_cOOlmODANc7p-44" value="Logged in" style="rhombus;whiteSpace=wrap;html=1;shadow=0;fontFamily=Helvetica;fontSize=12;align=center;strokeWidth=1;spacing=6;spacingTop=-4;" vertex="1" parent="uOhC4vjeW_qJQav9Dk9j-1">
          <mxGeometry x="379" y="-70" width="100" height="80" as="geometry" />
        </mxCell>
        <mxCell id="G-tmLV2_cOOlmODANc7p-45" value="Option/Choice" style="rhombus;whiteSpace=wrap;html=1;shadow=0;fontFamily=Helvetica;fontSize=12;align=center;strokeWidth=1;spacing=6;spacingTop=-4;" vertex="1" parent="uOhC4vjeW_qJQav9Dk9j-1">
          <mxGeometry x="930" y="-120" width="100" height="80" as="geometry" />
        </mxCell>
        <mxCell id="G-tmLV2_cOOlmODANc7p-46" style="edgeStyle=orthogonalEdgeStyle;rounded=0;orthogonalLoop=1;jettySize=auto;html=1;exitX=1;exitY=0.5;exitDx=0;exitDy=0;entryX=0;entryY=0.5;entryDx=0;entryDy=0;endArrow=block;endFill=0;" edge="1" parent="uOhC4vjeW_qJQav9Dk9j-1" source="G-tmLV2_cOOlmODANc7p-48" target="G-tmLV2_cOOlmODANc7p-11">
          <mxGeometry relative="1" as="geometry" />
        </mxCell>
        <mxCell id="G-tmLV2_cOOlmODANc7p-47" style="edgeStyle=orthogonalEdgeStyle;rounded=0;orthogonalLoop=1;jettySize=auto;html=1;exitX=1;exitY=0.5;exitDx=0;exitDy=0;entryX=0;entryY=0.5;entryDx=0;entryDy=0;endArrow=block;endFill=0;" edge="1" parent="uOhC4vjeW_qJQav9Dk9j-1" source="G-tmLV2_cOOlmODANc7p-48" target="G-tmLV2_cOOlmODANc7p-2">
          <mxGeometry relative="1" as="geometry" />
        </mxCell>
        <mxCell id="G-tmLV2_cOOlmODANc7p-48" value="Landing page" style="ellipse;whiteSpace=wrap;html=1;strokeColor=#000000;fillColor=#FFFFFF;" vertex="1" parent="uOhC4vjeW_qJQav9Dk9j-1">
          <mxGeometry x="140" y="84" width="120" height="80" as="geometry" />
        </mxCell>
        <mxCell id="G-tmLV2_cOOlmODANc7p-49" style="edgeStyle=orthogonalEdgeStyle;rounded=0;orthogonalLoop=1;jettySize=auto;html=1;entryX=0.75;entryY=0;entryDx=0;entryDy=0;endArrow=block;endFill=0;" edge="1" parent="uOhC4vjeW_qJQav9Dk9j-1">
          <mxGeometry relative="1" as="geometry">
            <mxPoint x="940.5" y="220" as="sourcePoint" />
            <mxPoint x="1019.5" y="220" as="targetPoint" />
          </mxGeometry>
        </mxCell>
        <mxCell id="G-tmLV2_cOOlmODANc7p-50" value="Visitor" style="edgeLabel;html=1;align=center;verticalAlign=middle;resizable=0;points=[];" vertex="1" connectable="0" parent="G-tmLV2_cOOlmODANc7p-49">
          <mxGeometry x="-0.2785" y="-1" relative="1" as="geometry">
            <mxPoint x="1" y="-11" as="offset" />
          </mxGeometry>
        </mxCell>
        <mxCell id="G-tmLV2_cOOlmODANc7p-51" style="edgeStyle=orthogonalEdgeStyle;rounded=0;orthogonalLoop=1;jettySize=auto;html=1;entryX=0.75;entryY=0;entryDx=0;entryDy=0;endArrow=block;endFill=1;" edge="1" parent="uOhC4vjeW_qJQav9Dk9j-1">
          <mxGeometry relative="1" as="geometry">
            <mxPoint x="940.5" y="250" as="sourcePoint" />
            <mxPoint x="1019.5" y="250" as="targetPoint" />
          </mxGeometry>
        </mxCell>
        <mxCell id="G-tmLV2_cOOlmODANc7p-52" value="User" style="edgeLabel;html=1;align=center;verticalAlign=middle;resizable=0;points=[];" vertex="1" connectable="0" parent="G-tmLV2_cOOlmODANc7p-51">
          <mxGeometry x="-0.2785" y="-1" relative="1" as="geometry">
            <mxPoint x="2" y="-11" as="offset" />
          </mxGeometry>
        </mxCell>
        <mxCell id="G-tmLV2_cOOlmODANc7p-53" value="Visitor only" style="rounded=0;whiteSpace=wrap;html=1;strokeColor=#00FF00;" vertex="1" parent="uOhC4vjeW_qJQav9Dk9j-1">
          <mxGeometry x="920" y="345" width="120" height="60" as="geometry" />
        </mxCell>
        <mxCell id="G-tmLV2_cOOlmODANc7p-54" value="User only" style="rounded=0;whiteSpace=wrap;html=1;strokeColor=#FF0000;" vertex="1" parent="uOhC4vjeW_qJQav9Dk9j-1">
          <mxGeometry x="920" y="270" width="120" height="60" as="geometry" />
        </mxCell>
      </root>
    </mxGraphModel>
  </diagram>
</mxfile>
